Griffith_Gothic-Condensed.ufo
<glyph name="quotedbl" format="1">
  <advance width="295"/>
  <unicode hex="0022"/>
  <outline>
    <contour>
      <point x="255" y="720" type="line"/>
      <point x="233" y="497" type="line"/>
      <point x="198" y="497" type="line"/>
      <point x="177" y="720" type="line"/>
    </contour>
    <contour>
      <point x="119" y="720" type="line"/>
      <point x="98" y="497" type="line"/>
      <point x="61" y="497" type="line"/>
      <point x="40" y="720" type="line"/>
    </contour>
  </outline>
</glyph>
<glyph name="numbersign" format="1">
  <advance width="490"/>
  <unicode hex="0023"/>
  <outline>
    <contour>
      <point x="470" y="459" type="line"/>
      <point x="373" y="459" type="line"/>
      <point x="347" y="264" type="line"/>
      <point x="442" y="264" type="line"/>
      <point x="442" y="195" type="line"/>
      <point x="338" y="195" type="line"/>
      <point x="312" y="0" type="line"/>
      <point x="268" y="0" type="line"/>
      <point x="293" y="195" type="line"/>
      <point x="155" y="195" type="line"/>
      <point x="129" y="0" type="line"/>
      <point x="84" y="0" type="line"/>
      <point x="110" y="195" type="line"/>
      <point x="22" y="195" type="line"/>
      <point x="22" y="264" type="line"/>
      <point x="120" y="264" type="line"/>
      <point x="145" y="459" type="line"/>
      <point x="50" y="459" type="line"/>
      <point x="50" y="528" type="line"/>
      <point x="155" y="528" type="line"/>
      <point x="180" y="720" type="line"/>
      <point x="225" y="720" type="line"/>
      <point x="199" y="528" type="line"/>
      <point x="338" y="528" type="line"/>
      <point x="363" y="720" type="line"/>
      <point x="408" y="720" type="line"/>
      <point x="383" y="528" type="line"/>
      <point x="470" y="528" type="line"/>
    </contour>
    <contour>
      <point x="330" y="460" type="line"/>
      <point x="189" y="460" type="line"/>
      <point x="163" y="263" type="line"/>
      <point x="303" y="263" type="line"/>
    </contour>
  </outline>
</glyph>
<glyph name="ampersand" format="1">
  <advance width="545"/>
  <unicode hex="0026"/>
  <outline>
    <contour>
      <point x="544" y="3" type="line"/>
      <point x="527" y="-3"/>
      <point x="513" y="-6"/>
      <point x="493" y="-6" type="curve" smooth="yes"/>
      <point x="444" y="-6"/>
      <point x="410" y="10"/>
      <point x="364" y="70" type="curve"/>
      <point x="318" y="19"/>
      <point x="267" y="-10"/>
      <point x="209" y="-10" type="curve" smooth="yes"/>
      <point x="96" y="-10"/>
      <point x="24" y="70"/>
      <point x="24" y="191" type="curve" smooth="yes"/>
      <point x="24" y="280"/>
      <point x="63" y="348"/>
      <point x="157" y="413" type="curve"/>
      <point x="126" y="473"/>
      <point x="107" y="527"/>
      <point x="107" y="586" type="curve" smooth="yes"/>
      <point x="107" y="668"/>
      <point x="157" y="732"/>
      <point x="241" y="732" type="curve" smooth="yes"/>
      <point x="320" y="732"/>
      <point x="357" y="672"/>
      <point x="357" y="600" type="curve" smooth="yes"/>
      <point x="357" y="514"/>
      <point x="313" y="459"/>
      <point x="239" y="406" type="curve"/>
      <point x="295" y="303"/>
      <point x="336" y="229"/>
      <point x="370" y="178" type="curve"/>
      <point x="401" y="236"/>
      <point x="429" y="311"/>
      <point x="451" y="397" type="curve"/>
      <point x="508" y="368" type="line"/>
      <point x="481" y="269"/>
      <point x="447" y="187"/>
      <point x="408" y="125" type="curve"/>
      <point x="449" y="66"/>
      <point x="470" y="53"/>
      <point x="500" y="53" type="curve" smooth="yes"/>
      <point x="520" y="53"/>
      <point x="528" y="56"/>
      <point x="544" y="62" type="curve"/>
    </contour>
    <contour>
      <point x="294" y="594" type="curve" smooth="yes"/>
      <point x="294" y="645"/>
      <point x="273" y="682"/>
      <point x="239" y="682" type="curve" smooth="yes"/>
      <point x="195" y="682"/>
      <point x="172" y="639"/>
      <point x="172" y="590" type="curve" smooth="yes"/>
      <point x="172" y="545"/>
      <point x="185" y="500"/>
      <point x="211" y="448" type="curve"/>
      <point x="271" y="493"/>
      <point x="294" y="539"/>
    </contour>
    <contour>
      <point x="328" y="116" type="curve"/>
      <point x="290" y="174"/>
      <point x="242" y="253"/>
      <point x="185" y="364" type="curve"/>
      <point x="122" y="315"/>
      <point x="99" y="265"/>
      <point x="99" y="203" type="curve" smooth="yes"/>
      <point x="99" y="122"/>
      <point x="144" y="51"/>
      <point x="219" y="51" type="curve" smooth="yes"/>
      <point x="260" y="51"/>
      <point x="296" y="75"/>
    </contour>
  </outline>
</glyph>
<glyph name="quotesingle" format="1">
  <advance width="160"/>
  <unicode hex="0027"/>
  <outline>
    <contour>
      <point x="120" y="720" type="line"/>
      <point x="99" y="497" type="line"/>
      <point x="61" y="497" type="line"/>
      <point x="40" y="720" type="line"/>
    </contour>
  </outline>
</glyph>
<glyph name="parenleft" format="1">
  <advance width="261"/>
  <unicode hex="0028"/>
  <outline>
    <contour>
      <point x="240" y="-95" type="curve"/>
      <point x="178" y="-95" type="line"/>
      <point x="106" y="2"/>
      <point x="42" y="135"/>
      <point x="42" y="320" type="curve" smooth="yes"/>
      <point x="42" y="505"/>
      <point x="106" y="638"/>
      <point x="178" y="735" type="curve"/>
      <point x="240" y="735" type="line"/>
      <point x="163" y="616"/>
      <point x="119" y="484"/>
      <point x="119" y="320" type="curve" smooth="yes"/>
      <point x="119" y="156"/>
      <point x="163" y="24"/>
    </contour>
  </outline>
</glyph>
<glyph name="parenright" format="1">
  <advance width="261"/>
  <unicode hex="0029"/>
  <outline>
    <contour>
      <point x="219" y="320" type="curve" smooth="yes"/>
      <point x="219" y="135"/>
      <point x="156" y="2"/>
      <point x="84" y="-95" type="curve"/>
      <point x="21" y="-95" type="line"/>
      <point x="99" y="24"/>
      <point x="142" y="156"/>
      <point x="142" y="320" type="curve" smooth="yes"/>
      <point x="142" y="484"/>
      <point x="99" y="616"/>
      <point x="21" y="735" type="curve"/>
      <point x="84" y="735" type="line"/>
      <point x="156" y="638"/>
      <point x="219" y="505"/>
    </contour>
  </outline>
</glyph>
<glyph name="hyphen" format="1">
  <advance width="243"/>
  <unicode hex="002D"/>
  <unicode hex="2010"/>
  <unicode hex="2011"/>
  <outline>
    <contour>
      <point x="221" y="248" type="line"/>
      <point x="29" y="248" type="line"/>
      <point x="29" y="317" type="line"/>
      <point x="221" y="317" type="line"/>
    </contour>
  </outline>
</glyph>
<glyph name="period" format="1">
  <advance width="161"/>
  <unicode hex="002E"/>
  <outline>
    <contour>
      <point x="134" y="43" type="curve" smooth="yes"/>
      <point x="134" y="14"/>
      <point x="113" y="-7"/>
      <point x="84" y="-7" type="curve" smooth="yes"/>
      <point x="55" y="-7"/>
      <point x="34" y="14"/>
      <point x="34" y="43" type="curve" smooth="yes"/>
      <point x="34" y="72"/>
      <point x="55" y="93"/>
      <point x="84" y="93" type="curve" smooth="yes"/>
      <point x="113" y="93"/>
      <point x="134" y="72"/>
    </contour>
  </outline>
</glyph>
<glyph name="slash" format="1">
  <advance width="312"/>
  <unicode hex="002F"/>
  <outline>
    <contour>
      <point x="301" y="735" type="line"/>
      <point x="56" y="-95" type="line"/>
      <point x="-12" y="-95" type="line"/>
      <point x="233" y="735" type="line"/>
    </contour>
  </outline>
</glyph>
<glyph name="zero" format="1">
  <advance width="479"/>
  <unicode hex="0030"/>
  <outline>
    <contour>
      <point x="441" y="307" type="line" smooth="yes"/>
      <point x="441" y="105"/>
      <point x="362" y="-12"/>
      <point x="239" y="-12" type="curve" smooth="yes"/>
      <point x="114" y="-12"/>
      <point x="37" y="104"/>
      <point x="37" y="306" type="curve" smooth="yes"/>
      <point x="37" y="413" type="line" smooth="yes"/>
      <point x="37" y="615"/>
      <point x="114" y="732"/>
      <point x="239" y="732" type="curve" smooth="yes"/>
      <point x="362" y="732"/>
      <point x="441" y="615"/>
      <point x="441" y="414" type="curve" smooth="yes"/>
    </contour>
    <contour>
      <point x="360" y="298" type="curve" smooth="yes"/>
      <point x="360" y="420" type="line" smooth="yes"/>
      <point x="360" y="561"/>
      <point x="320" y="669"/>
      <point x="239" y="669" type="curve" smooth="yes"/>
      <point x="158" y="669"/>
      <point x="118" y="562"/>
      <point x="118" y="422" type="curve" smooth="yes"/>
      <point x="118" y="300" type="line" smooth="yes"/>
      <point x="118" y="159"/>
      <point x="158" y="52"/>
      <point x="239" y="52" type="curve" smooth="yes"/>
      <point x="320" y="52"/>
      <point x="360" y="157"/>
    </contour>
  </outline>
</glyph>
<glyph name="three" format="1">
  <advance width="417"/>
  <unicode hex="0033"/>
  <outline>
    <contour>
      <point x="388" y="251" type="curve" smooth="yes"/>
      <point x="388" y="89"/>
      <point x="229" y="-7"/>
      <point x="13" y="-5" type="curve"/>
      <point x="13" y="59" type="line"/>
      <point x="196" y="60"/>
      <point x="306" y="133"/>
      <point x="306" y="250" type="curve" smooth="yes"/>
      <point x="306" y="321"/>
      <point x="274" y="355"/>
      <point x="216" y="355" type="curve" smooth="yes"/>
      <point x="186" y="355"/>
      <point x="162" y="349"/>
      <point x="138" y="341" type="curve"/>
      <point x="120" y="397" type="line"/>
      <point x="227" y="447"/>
      <point x="277" y="496"/>
      <point x="277" y="569" type="curve" smooth="yes"/>
      <point x="277" y="629"/>
      <point x="248" y="668"/>
      <point x="197" y="668" type="curve" smooth="yes"/>
      <point x="150" y="668"/>
      <point x="115" y="638"/>
      <point x="80" y="580" type="curve"/>
      <point x="33" y="619" type="line"/>
      <point x="74" y="686"/>
      <point x="126" y="733"/>
      <point x="208" y="733" type="curve" smooth="yes"/>
      <point x="303" y="733"/>
      <point x="356" y="675"/>
      <point x="356" y="586" type="curve" smooth="yes"/>
      <point x="356" y="499"/>
      <point x="305" y="444"/>
      <point x="229" y="404" type="curve"/>
      <point x="230" y="400" type="line"/>
      <point x="319" y="411"/>
      <point x="388" y="360"/>
    </contour>
  </outline>
</glyph>
<glyph name="five" format="1">
  <advance width="435"/>
  <unicode hex="0035"/>
  <outline>
    <contour>
      <point x="404" y="245" type="line" smooth="yes"/>
      <point x="404" y="70"/>
      <point x="307" y="-10"/>
      <point x="186" y="-10" type="curve" smooth="yes"/>
      <point x="121" y="-10"/>
      <point x="79" y="2"/>
      <point x="26" y="32" type="curve"/>
      <point x="55" y="94" type="line"/>
      <point x="103" y="64"/>
      <point x="134" y="56"/>
      <point x="182" y="56" type="curve" smooth="yes"/>
      <point x="270" y="56"/>
      <point x="322" y="126"/>
      <point x="322" y="243" type="curve" smooth="yes"/>
      <point x="322" y="246" type="line" smooth="yes"/>
      <point x="322" y="347"/>
      <point x="290" y="401"/>
      <point x="224" y="401" type="curve" smooth="yes"/>
      <point x="182" y="401"/>
      <point x="153" y="376"/>
      <point x="127" y="343" type="curve"/>
      <point x="55" y="343" type="line"/>
      <point x="84" y="720" type="line"/>
      <point x="373" y="720" type="line"/>
      <point x="373" y="653" type="line"/>
      <point x="142" y="653" type="line"/>
      <point x="121" y="398" type="line"/>
      <point x="127" y="398" type="line"/>
      <point x="154" y="434"/>
      <point x="190" y="461"/>
      <point x="246" y="461" type="curve" smooth="yes"/>
      <point x="341" y="461"/>
      <point x="404" y="394"/>
      <point x="404" y="252" type="curve" smooth="yes"/>
    </contour>
  </outline>
</glyph>
<glyph name="six" format="1">
  <advance width="451"/>
  <unicode hex="0036"/>
  <outline>
    <contour>
      <point x="428" y="229" type="curve" smooth="yes"/>
      <point x="428" y="80"/>
      <point x="347" y="-12"/>
      <point x="228" y="-12" type="curve" smooth="yes"/>
      <point x="109" y="-12"/>
      <point x="34" y="76"/>
      <point x="34" y="250" type="curve" smooth="yes"/>
      <point x="34" y="429"/>
      <point x="103" y="589"/>
      <point x="218" y="720" type="curve"/>
      <point x="317" y="720" type="line"/>
      <point x="207" y="610"/>
      <point x="137" y="476"/>
      <point x="116" y="368" type="curve"/>
      <point x="122" y="368" type="line"/>
      <point x="152" y="417"/>
      <point x="190" y="451"/>
      <point x="257" y="451" type="curve" smooth="yes"/>
      <point x="352" y="451"/>
      <point x="428" y="373"/>
    </contour>
    <contour>
      <point x="347" y="223" type="curve" smooth="yes"/>
      <point x="347" y="324"/>
      <point x="309" y="391"/>
      <point x="236" y="391" type="curve" smooth="yes"/>
      <point x="160" y="391"/>
      <point x="115" y="316"/>
      <point x="115" y="223" type="curve" smooth="yes"/>
      <point x="115" y="121"/>
      <point x="156" y="48"/>
      <point x="231" y="48" type="curve" smooth="yes"/>
      <point x="305" y="48"/>
      <point x="347" y="120"/>
    </contour>
  </outline>
</glyph>
<glyph name="seven" format="1">
  <advance width="406"/>
  <unicode hex="0037"/>
  <outline>
    <contour>
      <point x="392" y="671" type="line"/>
      <point x="283" y="492"/>
      <point x="193" y="225"/>
      <point x="159" y="0" type="curve"/>
      <point x="78" y="0" type="line"/>
      <point x="109" y="198"/>
      <point x="200" y="474"/>
      <point x="309" y="653" type="curve"/>
      <point x="16" y="653" type="line"/>
      <point x="16" y="720" type="line"/>
      <point x="392" y="720" type="line"/>
    </contour>
  </outline>
</glyph>
<glyph name="colon" format="1">
  <advance width="185"/>
  <unicode hex="003A"/>
  <outline>
    <contour>
      <point x="143" y="475" type="curve" smooth="yes"/>
      <point x="143" y="446"/>
      <point x="122" y="425"/>
      <point x="93" y="425" type="curve" smooth="yes"/>
      <point x="64" y="425"/>
      <point x="42" y="446"/>
      <point x="42" y="475" type="curve" smooth="yes"/>
      <point x="42" y="505"/>
      <point x="64" y="526"/>
      <point x="93" y="526" type="curve" smooth="yes"/>
      <point x="122" y="526"/>
      <point x="143" y="505"/>
    </contour>
    <contour>
      <point x="143" y="43" type="curve" smooth="yes"/>
      <point x="143" y="14"/>
      <point x="122" y="-7"/>
      <point x="93" y="-7" type="curve" smooth="yes"/>
      <point x="64" y="-7"/>
      <point x="42" y="14"/>
      <point x="42" y="43" type="curve" smooth="yes"/>
      <point x="42" y="72"/>
      <point x="64" y="93"/>
      <point x="93" y="93" type="curve" smooth="yes"/>
      <point x="122" y="93"/>
      <point x="143" y="72"/>
    </contour>
  </outline>
</glyph>
<glyph name="semicolon" format="1">
  <advance width="185"/>
  <unicode hex="003B"/>
  <outline>
    <contour>
      <point x="144" y="475" type="curve" smooth="yes"/>
      <point x="144" y="446"/>
      <point x="123" y="425"/>
      <point x="94" y="425" type="curve" smooth="yes"/>
      <point x="65" y="425"/>
      <point x="44" y="446"/>
      <point x="44" y="475" type="curve" smooth="yes"/>
      <point x="44" y="505"/>
      <point x="65" y="526"/>
      <point x="94" y="526" type="curve" smooth="yes"/>
      <point x="123" y="526"/>
      <point x="144" y="505"/>
    </contour>
    <contour>
      <point x="135" y="104" type="line"/>
      <point x="61" y="-110" type="line"/>
      <point x="25" y="-110" type="line"/>
      <point x="54" y="104" type="line"/>
    </contour>
  </outline>
</glyph>
<glyph name="equal" format="1">
  <advance width="471"/>
  <unicode hex="003D"/>
  <outline>
    <contour>
      <point x="427" y="428" type="line"/>
      <point x="44" y="428" type="line"/>
      <point x="44" y="493" type="line"/>
      <point x="427" y="493" type="line"/>
    </contour>
    <contour>
      <point x="427" y="224" type="line"/>
      <point x="44" y="224" type="line"/>
      <point x="44" y="289" type="line"/>
      <point x="427" y="289" type="line"/>
    </contour>
  </outline>
</glyph>
<glyph name="greater" format="1">
  <advance width="472"/>
  <unicode hex="003E"/>
  <outline>
    <contour>
      <point x="437" y="321" type="line"/>
      <point x="40" y="133" type="line"/>
      <point x="40" y="207" type="line"/>
      <point x="367" y="356" type="line"/>
      <point x="40" y="504" type="line"/>
      <point x="40" y="578" type="line"/>
      <point x="437" y="389" type="line"/>
    </contour>
  </outline>
</glyph>
<glyph name="at" format="1">
  <advance width="779"/>
  <unicode hex="0040"/>
  <outline>
    <contour>
      <point x="738" y="332" type="curve" smooth="yes"/>
      <point x="738" y="142"/>
      <point x="649" y="29"/>
      <point x="555" y="29" type="curve" smooth="yes"/>
      <point x="493" y="29"/>
      <point x="450" y="69"/>
      <point x="446" y="144" type="curve"/>
      <point x="442" y="144" type="line"/>
      <point x="404" y="68"/>
      <point x="362" y="29"/>
      <point x="309" y="29" type="curve" smooth="yes"/>
      <point x="252" y="29"/>
      <point x="211" y="82"/>
      <point x="211" y="185" type="curve" smooth="yes"/>
      <point x="211" y="360"/>
      <point x="287" y="515"/>
      <point x="381" y="515" type="curve" smooth="yes"/>
      <point x="438" y="515"/>
      <point x="464" y="466"/>
      <point x="477" y="399" type="curve"/>
      <point x="480" y="398" type="line"/>
      <point x="502" y="514" type="line"/>
      <point x="565" y="494" type="line"/>
      <point x="509" y="190" type="line" smooth="yes"/>
      <point x="496" y="118"/>
      <point x="518" y="64"/>
      <point x="571" y="64" type="curve" smooth="yes"/>
      <point x="640" y="64"/>
      <point x="704" y="175"/>
      <point x="704" y="331" type="curve" smooth="yes"/>
      <point x="704" y="560"/>
      <point x="585" y="703"/>
      <point x="402" y="703" type="curve" smooth="yes"/>
      <point x="213" y="703"/>
      <point x="71" y="518"/>
      <point x="71" y="266" type="curve" smooth="yes"/>
      <point x="71" y="3"/>
      <point x="195" y="-163"/>
      <point x="395" y="-163" type="curve" smooth="yes"/>
      <point x="491" y="-163"/>
      <point x="559" y="-134"/>
      <point x="629" y="-83" type="curve"/>
      <point x="645" y="-110" type="line"/>
      <point x="571" y="-162"/>
      <point x="496" y="-192"/>
      <point x="393" y="-192" type="curve" smooth="yes"/>
      <point x="177" y="-192"/>
      <point x="37" y="-19"/>
      <point x="37" y="265" type="curve" smooth="yes"/>
      <point x="37" y="542"/>
      <point x="201" y="732"/>
      <point x="404" y="732" type="curve" smooth="yes"/>
      <point x="593" y="732"/>
      <point x="738" y="584"/>
    </contour>
    <contour>
      <point x="466" y="325" type="curve" smooth="yes"/>
      <point x="467" y="390"/>
      <point x="442" y="461"/>
      <point x="396" y="461" type="curve" smooth="yes"/>
      <point x="331" y="461"/>
      <point x="278" y="331"/>
      <point x="278" y="190" type="curve" smooth="yes"/>
      <point x="278" y="123"/>
      <point x="299" y="78"/>
      <point x="337" y="78" type="curve" smooth="yes"/>
      <point x="398" y="78"/>
      <point x="463" y="206"/>
    </contour>
  </outline>
</glyph>
<glyph name="B" format="1">
  <advance width="480"/>
  <unicode hex="0042"/>
  <outline>
    <contour>
      <point x="451" y="200" type="curve" smooth="yes"/>
      <point x="451" y="71"/>
      <point x="365" y="0"/>
      <point x="236" y="0" type="curve" smooth="yes"/>
      <point x="59" y="0" type="line"/>
      <point x="59" y="720" type="line"/>
      <point x="238" y="720" type="line" smooth="yes"/>
      <point x="355" y="720"/>
      <point x="427" y="655"/>
      <point x="427" y="548" type="curve" smooth="yes"/>
      <point x="427" y="458"/>
      <point x="376" y="411"/>
      <point x="315" y="390" type="curve"/>
      <point x="315" y="386" type="line"/>
      <point x="396" y="364"/>
      <point x="451" y="310"/>
    </contour>
    <contour>
      <point x="348" y="541" type="curve" smooth="yes"/>
      <point x="348" y="621"/>
      <point x="303" y="662"/>
      <point x="230" y="662" type="curve" smooth="yes"/>
      <point x="140" y="662" type="line"/>
      <point x="140" y="413" type="line"/>
      <point x="226" y="413" type="line" smooth="yes"/>
      <point x="300" y="413"/>
      <point x="348" y="455"/>
    </contour>
    <contour>
      <point x="370" y="203" type="curve" smooth="yes"/>
      <point x="370" y="301"/>
      <point x="327" y="356"/>
      <point x="227" y="356" type="curve" smooth="yes"/>
      <point x="140" y="356" type="line"/>
      <point x="140" y="58" type="line"/>
      <point x="229" y="58" type="line" smooth="yes"/>
      <point x="315" y="58"/>
      <point x="370" y="105"/>
    </contour>
  </outline>
</glyph>
<glyph name="E" format="1">
  <advance width="425"/>
  <unicode hex="0045"/>
  <outline>
    <contour>
      <point x="400" y="0" type="line"/>
      <point x="59" y="0" type="line"/>
      <point x="59" y="720" type="line"/>
      <point x="390" y="720" type="line"/>
      <point x="390" y="654" type="line"/>
      <point x="141" y="654" type="line"/>
      <point x="141" y="408" type="line"/>
      <point x="342" y="408" type="line"/>
      <point x="342" y="344" type="line"/>
      <point x="141" y="344" type="line"/>
      <point x="141" y="66" type="line"/>
      <point x="400" y="66" type="line"/>
    </contour>
  </outline>
</glyph>
<glyph name="G" format="1">
  <advance width="491"/>
  <unicode hex="0047"/>
  <outline>
    <contour>
      <point x="448" y="0" type="line"/>
      <point x="412" y="0" type="line"/>
      <point x="405" y="195" type="line"/>
      <point x="401" y="195" type="line"/>
      <point x="377" y="67"/>
      <point x="331" y="-12"/>
      <point x="232" y="-12" type="curve" smooth="yes"/>
      <point x="113" y="-12"/>
      <point x="38" y="111"/>
      <point x="38" y="314" type="curve" smooth="yes"/>
      <point x="38" y="406" type="line" smooth="yes"/>
      <point x="38" y="610"/>
      <point x="120" y="732"/>
      <point x="242" y="732" type="curve" smooth="yes"/>
      <point x="357" y="732"/>
      <point x="408" y="654"/>
      <point x="432" y="533" type="curve"/>
      <point x="355" y="511" type="line"/>
      <point x="337" y="611"/>
      <point x="306" y="668"/>
      <point x="242" y="668" type="curve" smooth="yes"/>
      <point x="161" y="668"/>
      <point x="121" y="562"/>
      <point x="121" y="415" type="curve" smooth="yes"/>
      <point x="121" y="308" type="line" smooth="yes"/>
      <point x="121" y="155"/>
      <point x="164" y="52"/>
      <point x="242" y="52" type="curve" smooth="yes"/>
      <point x="318" y="52"/>
      <point x="351" y="135"/>
      <point x="361" y="291" type="curve"/>
      <point x="252" y="291" type="line"/>
      <point x="252" y="331" type="line"/>
      <point x="448" y="331" type="line"/>
    </contour>
  </outline>
</glyph>
<glyph name="M" format="1">
  <advance width="666"/>
  <unicode hex="004D"/>
  <outline>
    <contour>
      <point x="608" y="0" type="line"/>
      <point x="530" y="0" type="line"/>
      <point x="530" y="626" type="line"/>
      <point x="524" y="626" type="line"/>
      <point x="377" y="0" type="line"/>
      <point x="287" y="0" type="line"/>
      <point x="137" y="626" type="line"/>
      <point x="131" y="626" type="line"/>
      <point x="131" y="0" type="line"/>
      <point x="59" y="0" type="line"/>
      <point x="59" y="720" type="line"/>
      <point x="186" y="720" type="line"/>
      <point x="332" y="103" type="line"/>
      <point x="337" y="103" type="line"/>
      <point x="482" y="720" type="line"/>
      <point x="608" y="720" type="line"/>
    </contour>
  </outline>
</glyph>
<glyph name="N" format="1">
  <advance width="507"/>
  <unicode hex="004E"/>
  <outline>
    <contour>
      <point x="448" y="0" type="line"/>
      <point x="364" y="0" type="line"/>
      <point x="133" y="576" type="line"/>
      <point x="128" y="576" type="line"/>
      <point x="128" y="0" type="line"/>
      <point x="59" y="0" type="line"/>
      <point x="59" y="720" type="line"/>
      <point x="149" y="720" type="line"/>
      <point x="374" y="160" type="line"/>
      <point x="378" y="160" type="line"/>
      <point x="378" y="720" type="line"/>
      <point x="448" y="720" type="line"/>
    </contour>
  </outline>
</glyph>
<glyph name="Q" format="1">
  <advance width="491"/>
  <unicode hex="0051"/>
  <outline>
    <contour>
      <point x="485" y="-103" type="line"/>
      <point x="474" y="-107"/>
      <point x="462" y="-108"/>
      <point x="451" y="-108" type="curve" smooth="yes"/>
      <point x="406" y="-108"/>
      <point x="381" y="-93"/>
      <point x="355" y="-43" type="curve" smooth="yes"/>
      <point x="328" y="9" type="line"/>
      <point x="304" y="-6"/>
      <point x="276" y="-12"/>
      <point x="246" y="-12" type="curve" smooth="yes"/>
      <point x="116" y="-12"/>
      <point x="38" y="109"/>
      <point x="38" y="313" type="curve" smooth="yes"/>
      <point x="38" y="406" type="line" smooth="yes"/>
      <point x="38" y="610"/>
      <point x="116" y="732"/>
      <point x="246" y="732" type="curve" smooth="yes"/>
      <point x="375" y="732"/>
      <point x="453" y="611"/>
      <point x="453" y="407" type="curve" smooth="yes"/>
      <point x="453" y="314" type="line" smooth="yes"/>
      <point x="453" y="188"/>
      <point x="423" y="93"/>
      <point x="369" y="39" type="curve"/>
      <point x="402" y="-17" type="line" smooth="yes"/>
      <point x="417" y="-43"/>
      <point x="431" y="-53"/>
      <point x="456" y="-53" type="curve" smooth="yes"/>
      <point x="466" y="-53"/>
      <point x="474" y="-51"/>
      <point x="485" y="-48" type="curve"/>
    </contour>
    <contour>
      <point x="372" y="281" type="curve" smooth="yes"/>
      <point x="372" y="420" type="line" smooth="yes"/>
      <point x="372" y="562"/>
      <point x="332" y="670"/>
      <point x="247" y="670" type="curve" smooth="yes"/>
      <point x="160" y="670"/>
      <point x="121" y="563"/>
      <point x="121" y="422" type="curve" smooth="yes"/>
      <point x="121" y="297" type="line" smooth="yes"/>
      <point x="121" y="155"/>
      <point x="160" y="48"/>
      <point x="247" y="48" type="curve" smooth="yes"/>
      <point x="268" y="48"/>
      <point x="285" y="54"/>
      <point x="301" y="66" type="curve"/>
      <point x="229" y="201" type="line"/>
      <point x="260" y="221" type="line"/>
      <point x="330" y="97" type="line"/>
      <point x="357" y="137"/>
      <point x="372" y="203"/>
    </contour>
  </outline>
</glyph>
<glyph name="R" format="1">
  <advance width="474"/>
  <unicode hex="0052"/>
  <outline>
    <contour>
      <point x="449" y="0" type="line"/>
      <point x="362" y="0" type="line"/>
      <point x="220" y="308" type="line"/>
      <point x="141" y="308" type="line"/>
      <point x="141" y="0" type="line"/>
      <point x="59" y="0" type="line"/>
      <point x="59" y="720" type="line"/>
      <point x="217" y="720" type="line" smooth="yes"/>
      <point x="353" y="720"/>
      <point x="433" y="653"/>
      <point x="433" y="517" type="curve" smooth="yes"/>
      <point x="433" y="408"/>
      <point x="376" y="347"/>
      <point x="294" y="330" type="curve"/>
    </contour>
    <contour>
      <point x="352" y="512" type="curve" smooth="yes"/>
      <point x="352" y="608"/>
      <point x="307" y="658"/>
      <point x="217" y="658" type="curve" smooth="yes"/>
      <point x="141" y="658" type="line"/>
      <point x="141" y="367" type="line"/>
      <point x="220" y="367" type="line" smooth="yes"/>
      <point x="306" y="367"/>
      <point x="352" y="413"/>
    </contour>
  </outline>
</glyph>
<glyph name="S" format="1">
  <advance width="452"/>
  <unicode hex="0053"/>
  <outline>
    <contour>
      <point x="419" y="185" type="curve" smooth="yes"/>
      <point x="419" y="58"/>
      <point x="336" y="-11"/>
      <point x="233" y="-11" type="curve" smooth="yes"/>
      <point x="129" y="-11"/>
      <point x="68" y="41"/>
      <point x="31" y="150" type="curve"/>
      <point x="90" y="192" type="line"/>
      <point x="120" y="96"/>
      <point x="167" y="54"/>
      <point x="235" y="54" type="curve" smooth="yes"/>
      <point x="296" y="54"/>
      <point x="342" y="101"/>
      <point x="342" y="178" type="curve" smooth="yes"/>
      <point x="342" y="249"/>
      <point x="311" y="291"/>
      <point x="212" y="334" type="curve" smooth="yes"/>
      <point x="93" y="385"/>
      <point x="47" y="442"/>
      <point x="47" y="550" type="curve" smooth="yes"/>
      <point x="47" y="648"/>
      <point x="114" y="731"/>
      <point x="219" y="731" type="curve" smooth="yes"/>
      <point x="312" y="731"/>
      <point x="368" y="684"/>
      <point x="404" y="593" type="curve"/>
      <point x="345" y="551" type="line"/>
      <point x="314" y="628"/>
      <point x="278" y="666"/>
      <point x="218" y="666" type="curve" smooth="yes"/>
      <point x="155" y="666"/>
      <point x="124" y="611"/>
      <point x="124" y="557" type="curve" smooth="yes"/>
      <point x="124" y="490"/>
      <point x="152" y="452"/>
      <point x="250" y="410" type="curve" smooth="yes"/>
      <point x="375" y="356"/>
      <point x="419" y="295"/>
    </contour>
  </outline>
</glyph>
<glyph name="T" format="1">
  <advance width="455"/>
  <unicode hex="0054"/>
  <outline>
    <contour>
      <point x="438" y="654" type="line"/>
      <point x="268" y="654" type="line"/>
      <point x="268" y="0" type="line"/>
      <point x="186" y="0" type="line"/>
      <point x="186" y="654" type="line"/>
      <point x="16" y="654" type="line"/>
      <point x="16" y="720" type="line"/>
      <point x="438" y="720" type="line"/>
    </contour>
  </outline>
</glyph>
<glyph name="U" format="1">
  <advance width="494"/>
  <unicode hex="0055"/>
  <outline>
    <contour>
      <point x="438" y="223" type="line" smooth="yes"/>
      <point x="438" y="57"/>
      <point x="361" y="-12"/>
      <point x="247" y="-12" type="curve" smooth="yes"/>
      <point x="133" y="-12"/>
      <point x="55" y="57"/>
      <point x="55" y="224" type="curve" smooth="yes"/>
      <point x="55" y="720" type="line"/>
      <point x="139" y="720" type="line"/>
      <point x="139" y="215" type="line" smooth="yes"/>
      <point x="139" y="102"/>
      <point x="183" y="52"/>
      <point x="250" y="52" type="curve" smooth="yes"/>
      <point x="316" y="52"/>
      <point x="359" y="100"/>
      <point x="359" y="213" type="curve" smooth="yes"/>
      <point x="359" y="720" type="line"/>
      <point x="438" y="720" type="line"/>
    </contour>
  </outline>
</glyph>
<glyph name="V" format="1">
  <advance width="487"/>
  <unicode hex="0056"/>
  <outline>
    <contour>
      <point x="475" y="720" type="line"/>
      <point x="296" y="-6" type="line"/>
      <point x="196" y="-6" type="line"/>
      <point x="18" y="720" type="line"/>
      <point x="105" y="720" type="line"/>
      <point x="246" y="99" type="line"/>
      <point x="251" y="99" type="line"/>
      <point x="392" y="720" type="line"/>
    </contour>
  </outline>
</glyph>
<glyph name="W" format="1">
  <advance width="762"/>
  <unicode hex="0057"/>
  <outline>
    <contour>
      <point x="741" y="720" type="line"/>
      <point x="602" y="-5" type="line"/>
      <point x="498" y="-5" type="line"/>
      <point x="384" y="616" type="line"/>
      <point x="378" y="616" type="line"/>
      <point x="263" y="-5" type="line"/>
      <point x="159" y="-5" type="line"/>
      <point x="20" y="720" type="line"/>
      <point x="104" y="720" type="line"/>
      <point x="213" y="97" type="line"/>
      <point x="218" y="97" type="line"/>
      <point x="327" y="720" type="line"/>
      <point x="436" y="720" type="line"/>
      <point x="547" y="97" type="line"/>
      <point x="552" y="97" type="line"/>
      <point x="660" y="720" type="line"/>
    </contour>
  </outline>
</glyph>
<glyph name="X" format="1">
  <advance width="499"/>
  <unicode hex="0058"/>
  <outline>
    <contour>
      <point x="478" y="0" type="line"/>
      <point x="386" y="0" type="line"/>
      <point x="246" y="303" type="line"/>
      <point x="101" y="0" type="line"/>
      <point x="20" y="0" type="line"/>
      <point x="201" y="369" type="line"/>
      <point x="32" y="720" type="line"/>
      <point x="124" y="720" type="line"/>
      <point x="254" y="440" type="line"/>
      <point x="386" y="720" type="line"/>
      <point x="467" y="720" type="line"/>
      <point x="298" y="373" type="line"/>
    </contour>
  </outline>
</glyph>
<glyph name="backslash" format="1">
  <advance width="312"/>
  <unicode hex="005C"/>
  <outline>
    <contour>
      <point x="323" y="-95" type="line"/>
      <point x="256" y="-95" type="line"/>
      <point x="11" y="735" type="line"/>
      <point x="79" y="735" type="line"/>
    </contour>
  </outline>
</glyph>
<glyph name="underscore" format="1">
  <advance width="397"/>
  <unicode hex="005F"/>
  <outline>
    <contour>
      <point x="400" y="-90" type="line"/>
      <point x="-3" y="-90" type="line"/>
      <point x="-3" y="-48" type="line"/>
      <point x="400" y="-48" type="line"/>
    </contour>
  </outline>
</glyph>
<glyph name="grave" format="1">
  <advance width="393"/>
  <unicode hex="0060"/>
  <outline>
    <contour>
      <point x="269" y="579" type="line"/>
      <point x="217" y="579" type="line"/>
      <point x="106" y="702" type="line"/>
      <point x="199" y="702" type="line"/>
    </contour>
  </outline>
</glyph>
<glyph name="b" format="1">
  <advance width="417"/>
  <unicode hex="0062"/>
  <outline>
    <contour>
      <point x="386" y="246" type="line" smooth="yes"/>
      <point x="386" y="78"/>
      <point x="323" y="-9"/>
      <point x="251" y="-9" type="curve" smooth="yes"/>
      <point x="200" y="-9"/>
      <point x="161" y="35"/>
      <point x="132" y="91" type="curve"/>
      <point x="128" y="91" type="line"/>
      <point x="128" y="-9" type="line"/>
      <point x="49" y="13" type="line"/>
      <point x="49" y="738" type="line"/>
      <point x="128" y="760" type="line"/>
      <point x="128" y="425" type="line"/>
      <point x="132" y="425" type="line"/>
      <point x="162" y="484"/>
      <point x="199" y="530"/>
      <point x="253" y="530" type="curve" smooth="yes"/>
      <point x="326" y="530"/>
      <point x="386" y="445"/>
      <point x="386" y="276" type="curve" smooth="yes"/>
    </contour>
    <contour>
      <point x="308" y="260" type="curve" smooth="yes"/>
      <point x="308" y="409"/>
      <point x="271" y="472"/>
      <point x="222" y="472" type="curve" smooth="yes"/>
      <point x="169" y="472"/>
      <point x="123" y="380"/>
      <point x="123" y="260" type="curve" smooth="yes"/>
      <point x="123" y="141"/>
      <point x="168" y="49"/>
      <point x="225" y="49" type="curve" smooth="yes"/>
      <point x="273" y="49"/>
      <point x="308" y="117"/>
    </contour>
  </outline>
</glyph>
<glyph name="c" format="1">
  <advance width="363"/>
  <unicode hex="0063"/>
  <outline>
    <contour>
      <point x="341" y="136" type="line"/>
      <point x="323" y="48"/>
      <point x="276" y="-10"/>
      <point x="194" y="-10" type="curve" smooth="yes"/>
      <point x="93" y="-10"/>
      <point x="31" y="85"/>
      <point x="31" y="232" type="curve" smooth="yes"/>
      <point x="31" y="287" type="line" smooth="yes"/>
      <point x="31" y="432"/>
      <point x="97" y="531"/>
      <point x="194" y="531" type="curve" smooth="yes"/>
      <point x="281" y="531"/>
      <point x="323" y="467"/>
      <point x="339" y="382" type="curve"/>
      <point x="273" y="366" type="line"/>
      <point x="259" y="434"/>
      <point x="238" y="474"/>
      <point x="194" y="474" type="curve" smooth="yes"/>
      <point x="141" y="474"/>
      <point x="108" y="404"/>
      <point x="108" y="293" type="curve" smooth="yes"/>
      <point x="108" y="229" type="line" smooth="yes"/>
      <point x="108" y="118"/>
      <point x="142" y="46"/>
      <point x="198" y="46" type="curve" smooth="yes"/>
      <point x="237" y="46"/>
      <point x="264" y="83"/>
      <point x="278" y="152" type="curve"/>
    </contour>
  </outline>
</glyph>
<glyph name="g" format="1">
  <advance width="417"/>
  <unicode hex="0067"/>
  <outline>
    <contour>
      <point x="368" y="5" type="line" smooth="yes"/>
      <point x="368" y="-137"/>
      <point x="299" y="-190"/>
      <point x="191" y="-190" type="curve" smooth="yes"/>
      <point x="133" y="-190"/>
      <point x="96" y="-179"/>
      <point x="66" y="-167" type="curve"/>
      <point x="66" y="-102" type="line"/>
      <point x="88" y="-102" type="line"/>
      <point x="104" y="-130"/>
      <point x="132" y="-145"/>
      <point x="186" y="-145" type="curve" smooth="yes"/>
      <point x="247" y="-145"/>
      <point x="289" y="-109"/>
      <point x="289" y="-8" type="curve" smooth="yes"/>
      <point x="289" y="96" type="line"/>
      <point x="285" y="96" type="line"/>
      <point x="254" y="36"/>
      <point x="218" y="-9"/>
      <point x="164" y="-9" type="curve" smooth="yes"/>
      <point x="90" y="-9"/>
      <point x="31" y="76"/>
      <point x="31" y="245" type="curve" smooth="yes"/>
      <point x="31" y="276" type="line" smooth="yes"/>
      <point x="31" y="443"/>
      <point x="94" y="530"/>
      <point x="166" y="530" type="curve" smooth="yes"/>
      <point x="217" y="530"/>
      <point x="256" y="485"/>
      <point x="285" y="429" type="curve"/>
      <point x="289" y="429" type="line"/>
      <point x="289" y="530" type="line"/>
      <point x="368" y="508" type="line"/>
    </contour>
    <contour>
      <point x="294" y="260" type="curve" smooth="yes"/>
      <point x="294" y="380"/>
      <point x="250" y="472"/>
      <point x="193" y="472" type="curve" smooth="yes"/>
      <point x="144" y="472"/>
      <point x="108" y="404"/>
      <point x="108" y="261" type="curve" smooth="yes"/>
      <point x="108" y="112"/>
      <point x="146" y="49"/>
      <point x="195" y="49" type="curve" smooth="yes"/>
      <point x="249" y="49"/>
      <point x="294" y="140"/>
    </contour>
  </outline>
</glyph>
<glyph name="i" format="1">
  <advance width="189"/>
  <unicode hex="0069"/>
  <outline>
    <contour>
      <point x="137" y="634" type="line"/>
      <point x="51" y="634" type="line"/>
      <point x="51" y="720" type="line"/>
      <point x="137" y="720" type="line"/>
    </contour>
    <contour>
      <point x="134" y="0" type="line"/>
      <point x="55" y="0" type="line"/>
      <point x="55" y="521" type="line"/>
      <point x="134" y="521" type="line"/>
    </contour>
  </outline>
</glyph>
<glyph name="j" format="1">
  <advance width="189"/>
  <unicode hex="006A"/>
  <outline>
    <contour>
      <point x="137" y="634" type="line"/>
      <point x="51" y="634" type="line"/>
      <point x="51" y="720" type="line"/>
      <point x="137" y="720" type="line"/>
    </contour>
    <contour>
      <point x="134" y="-70" type="line" smooth="yes"/>
      <point x="134" y="-155"/>
      <point x="94" y="-190"/>
      <point x="26" y="-190" type="curve" smooth="yes"/>
      <point x="0" y="-190"/>
      <point x="-15" y="-187"/>
      <point x="-33" y="-181" type="curve"/>
      <point x="-33" y="-128" type="line"/>
      <point x="-21" y="-134"/>
      <point x="-8" y="-137"/>
      <point x="10" y="-137" type="curve" smooth="yes"/>
      <point x="36" y="-137"/>
      <point x="55" y="-119"/>
      <point x="55" y="-77" type="curve" smooth="yes"/>
      <point x="55" y="521" type="line"/>
      <point x="134" y="521" type="line"/>
    </contour>
  </outline>
</glyph>
<glyph name="k" format="1">
  <advance width="387"/>
  <unicode hex="006B"/>
  <outline>
    <contour>
      <point x="128" y="0" type="line"/>
      <point x="49" y="0" type="line"/>
      <point x="49" y="738" type="line"/>
      <point x="128" y="760" type="line"/>
    </contour>
    <contour>
      <point x="384" y="0" type="line"/>
      <point x="298" y="0" type="line"/>
      <point x="141" y="261" type="line"/>
      <point x="141" y="264" type="line"/>
      <point x="295" y="521" type="line"/>
      <point x="378" y="521" type="line"/>
      <point x="220" y="266" type="line"/>
    </contour>
  </outline>
</glyph>
<glyph name="m" format="1">
  <advance width="620"/>
  <unicode hex="006D"/>
  <outline>
    <contour>
      <point x="573" y="0" type="line"/>
      <point x="496" y="0" type="line"/>
      <point x="496" y="400" type="line" smooth="yes"/>
      <point x="496" y="443"/>
      <point x="482" y="465"/>
      <point x="451" y="465" type="curve" smooth="yes"/>
      <point x="419" y="465"/>
      <point x="383" y="436"/>
      <point x="350" y="373" type="curve"/>
      <point x="350" y="0" type="line"/>
      <point x="273" y="0" type="line"/>
      <point x="273" y="400" type="line" smooth="yes"/>
      <point x="273" y="443"/>
      <point x="259" y="465"/>
      <point x="228" y="465" type="curve" smooth="yes"/>
      <point x="195" y="465"/>
      <point x="160" y="436"/>
      <point x="127" y="373" type="curve"/>
      <point x="127" y="0" type="line"/>
      <point x="49" y="0" type="line"/>
      <point x="49" y="508" type="line"/>
      <point x="127" y="530" type="line"/>
      <point x="127" y="421" type="line"/>
      <point x="130" y="421" type="line"/>
      <point x="173" y="487"/>
      <point x="211" y="526"/>
      <point x="265" y="526" type="curve" smooth="yes"/>
      <point x="321" y="526"/>
      <point x="350" y="486"/>
      <point x="350" y="427" type="curve" smooth="yes"/>
      <point x="350" y="421" type="line"/>
      <point x="353" y="421" type="line"/>
      <point x="396" y="487"/>
      <point x="434" y="526"/>
      <point x="488" y="526" type="curve" smooth="yes"/>
      <point x="546" y="526"/>
      <point x="573" y="483"/>
      <point x="573" y="417" type="curve" smooth="yes"/>
    </contour>
  </outline>
</glyph>
<glyph name="o" format="1">
  <advance width="401"/>
  <unicode hex="006F"/>
  <outline>
    <contour>
      <point x="371" y="240" type="line" smooth="yes"/>
      <point x="371" y="92"/>
      <point x="306" y="-10"/>
      <point x="200" y="-10" type="curve" smooth="yes"/>
      <point x="95" y="-10"/>
      <point x="31" y="92"/>
      <point x="31" y="240" type="curve" smooth="yes"/>
      <point x="31" y="282" type="line" smooth="yes"/>
      <point x="31" y="429"/>
      <point x="96" y="531"/>
      <point x="202" y="531" type="curve" smooth="yes"/>
      <point x="307" y="531"/>
      <point x="371" y="429"/>
      <point x="371" y="282" type="curve" smooth="yes"/>
    </contour>
    <contour>
      <point x="293" y="234" type="curve" smooth="yes"/>
      <point x="293" y="287" type="line" smooth="yes"/>
      <point x="293" y="399"/>
      <point x="258" y="477"/>
      <point x="200" y="477" type="curve" smooth="yes"/>
      <point x="142" y="477"/>
      <point x="108" y="399"/>
      <point x="108" y="287" type="curve" smooth="yes"/>
      <point x="108" y="234" type="line" smooth="yes"/>
      <point x="108" y="122"/>
      <point x="144" y="44"/>
      <point x="202" y="44" type="curve" smooth="yes"/>
      <point x="259" y="44"/>
      <point x="293" y="122"/>
    </contour>
  </outline>
</glyph>
<glyph name="r" format="1">
  <advance width="303"/>
  <unicode hex="0072"/>
  <outline>
    <contour>
      <point x="294" y="442" type="line"/>
      <point x="224" y="426"/>
      <point x="170" y="366"/>
      <point x="128" y="292" type="curve"/>
      <point x="128" y="0" type="line"/>
      <point x="49" y="0" type="line"/>
      <point x="49" y="508" type="line"/>
      <point x="128" y="530" type="line"/>
      <point x="128" y="348" type="line"/>
      <point x="133" y="348" type="line"/>
      <point x="186" y="456"/>
      <point x="236" y="518"/>
      <point x="294" y="530" type="curve"/>
    </contour>
  </outline>
</glyph>
<glyph name="s" format="1">
  <advance width="334"/>
  <unicode hex="0073"/>
  <outline>
    <contour>
      <point x="308" y="136" type="curve" smooth="yes"/>
      <point x="308" y="43"/>
      <point x="246" y="-9"/>
      <point x="167" y="-9" type="curve" smooth="yes"/>
      <point x="100" y="-9"/>
      <point x="52" y="25"/>
      <point x="18" y="77" type="curve"/>
      <point x="63" y="121" type="line"/>
      <point x="95" y="74"/>
      <point x="129" y="48"/>
      <point x="169" y="48" type="curve" smooth="yes"/>
      <point x="213" y="48"/>
      <point x="242" y="81"/>
      <point x="242" y="127" type="curve" smooth="yes"/>
      <point x="242" y="175"/>
      <point x="224" y="199"/>
      <point x="154" y="234" type="curve" smooth="yes"/>
      <point x="70" y="276"/>
      <point x="32" y="319"/>
      <point x="32" y="392" type="curve" smooth="yes"/>
      <point x="32" y="475"/>
      <point x="90" y="529"/>
      <point x="167" y="529" type="curve" smooth="yes"/>
      <point x="224" y="529"/>
      <point x="266" y="503"/>
      <point x="299" y="457" type="curve"/>
      <point x="255" y="412" type="line"/>
      <point x="226" y="454"/>
      <point x="199" y="473"/>
      <point x="165" y="473" type="curve" smooth="yes"/>
      <point x="123" y="473"/>
      <point x="99" y="441"/>
      <point x="99" y="401" type="curve" smooth="yes"/>
      <point x="99" y="358"/>
      <point x="123" y="332"/>
      <point x="184" y="302" type="curve" smooth="yes"/>
      <point x="272" y="258"/>
      <point x="308" y="214"/>
    </contour>
  </outline>
</glyph>
<glyph name="t" format="1">
  <advance width="291"/>
  <unicode hex="0074"/>
  <outline>
    <contour>
      <point x="275" y="25" type="line"/>
      <point x="240" y="3"/>
      <point x="211" y="-7"/>
      <point x="178" y="-7" type="curve" smooth="yes"/>
      <point x="119" y="-7"/>
      <point x="82" y="22"/>
      <point x="82" y="94" type="curve" smooth="yes"/>
      <point x="82" y="461" type="line"/>
      <point x="11" y="461" type="line"/>
      <point x="11" y="517" type="line"/>
      <point x="82" y="517" type="line"/>
      <point x="82" y="690" type="line"/>
      <point x="160" y="730" type="line"/>
      <point x="160" y="517" type="line"/>
      <point x="258" y="517" type="line"/>
      <point x="258" y="461" type="line"/>
      <point x="160" y="461" type="line"/>
      <point x="160" y="109" type="line" smooth="yes"/>
      <point x="160" y="71"/>
      <point x="178" y="55"/>
      <point x="206" y="55" type="curve" smooth="yes"/>
      <point x="226" y="55"/>
      <point x="246" y="62"/>
      <point x="275" y="82" type="curve"/>
    </contour>
  </outline>
</glyph>
<glyph name="u" format="1">
  <advance width="405"/>
  <unicode hex="0075"/>
  <outline>
    <contour>
      <point x="355" y="13" type="line"/>
      <point x="277" y="-9" type="line"/>
      <point x="277" y="99" type="line"/>
      <point x="273" y="99" type="line"/>
      <point x="229" y="34"/>
      <point x="189" y="-6"/>
      <point x="134" y="-6" type="curve" smooth="yes"/>
      <point x="76" y="-6"/>
      <point x="47" y="36"/>
      <point x="47" y="104" type="curve" smooth="yes"/>
      <point x="47" y="521" type="line"/>
      <point x="126" y="521" type="line"/>
      <point x="126" y="120" type="line" smooth="yes"/>
      <point x="126" y="76"/>
      <point x="141" y="56"/>
      <point x="173" y="56" type="curve" smooth="yes"/>
      <point x="206" y="56"/>
      <point x="243" y="86"/>
      <point x="277" y="146" type="curve"/>
      <point x="277" y="521" type="line"/>
      <point x="355" y="521" type="line"/>
    </contour>
  </outline>
</glyph>
<glyph name="v" format="1">
  <advance width="378"/>
  <unicode hex="0076"/>
  <outline>
    <contour>
      <point x="362" y="521" type="line"/>
      <point x="235" y="-5" type="line"/>
      <point x="143" y="-5" type="line"/>
      <point x="17" y="521" type="line"/>
      <point x="96" y="521" type="line"/>
      <point x="192" y="78" type="line"/>
      <point x="288" y="521" type="line"/>
    </contour>
  </outline>
</glyph>
<glyph name="w" format="1">
  <advance width="616"/>
  <unicode hex="0077"/>
  <outline>
    <contour>
      <point x="597" y="521" type="line"/>
      <point x="477" y="-4" type="line"/>
      <point x="394" y="-4" type="line"/>
      <point x="309" y="410" type="line"/>
      <point x="222" y="-4" type="line"/>
      <point x="139" y="-4" type="line"/>
      <point x="18" y="521" type="line"/>
      <point x="96" y="521" type="line"/>
      <point x="185" y="94" type="line"/>
      <point x="270" y="521" type="line"/>
      <point x="350" y="521" type="line"/>
      <point x="435" y="94" type="line"/>
      <point x="524" y="521" type="line"/>
    </contour>
  </outline>
</glyph>
<glyph name="x" format="1">
  <advance width="392"/>
  <unicode hex="0078"/>
  <outline>
    <contour>
      <point x="373" y="0" type="line"/>
      <point x="288" y="0" type="line"/>
      <point x="192" y="200" type="line"/>
      <point x="93" y="0" type="line"/>
      <point x="19" y="0" type="line"/>
      <point x="154" y="263" type="line"/>
      <point x="24" y="521" type="line"/>
      <point x="109" y="521" type="line"/>
      <point x="200" y="329" type="line"/>
      <point x="295" y="521" type="line"/>
      <point x="369" y="521" type="line"/>
      <point x="238" y="267" type="line"/>
    </contour>
  </outline>
</glyph>
<glyph name="y" format="1">
  <advance width="381"/>
  <unicode hex="0079"/>
  <outline>
    <contour>
      <point x="362" y="521" type="line"/>
      <point x="217" y="-61" type="line" smooth="yes"/>
      <point x="193" y="-156"/>
      <point x="156" y="-190"/>
      <point x="89" y="-190" type="curve" smooth="yes"/>
      <point x="53" y="-190"/>
      <point x="34" y="-183"/>
      <point x="14" y="-174" type="curve"/>
      <point x="14" y="-114" type="line"/>
      <point x="36" y="-114" type="line"/>
      <point x="45" y="-133"/>
      <point x="57" y="-145"/>
      <point x="85" y="-145" type="curve" smooth="yes"/>
      <point x="111" y="-145"/>
      <point x="131" y="-126"/>
      <point x="141" y="-88" type="curve" smooth="yes"/>
      <point x="156" y="-33" type="line"/>
      <point x="17" y="521" type="line"/>
      <point x="96" y="521" type="line"/>
      <point x="192" y="71" type="line"/>
      <point x="288" y="521" type="line"/>
    </contour>
  </outline>
</glyph>
<glyph name="z" format="1">
  <advance width="340"/>
  <unicode hex="007A"/>
  <outline>
    <contour>
      <point x="317" y="0" type="line"/>
      <point x="21" y="0" type="line"/>
      <point x="21" y="49" type="line"/>
      <point x="232" y="460" type="line"/>
      <point x="33" y="460" type="line"/>
      <point x="33" y="517" type="line"/>
      <point x="317" y="517" type="line"/>
      <point x="317" y="467" type="line"/>
      <point x="105" y="57" type="line"/>
      <point x="317" y="57" type="line"/>
    </contour>
  </outline>
</glyph>
<glyph name="bar" format="1">
  <advance width="201"/>
  <unicode hex="007C"/>
  <outline>
    <contour>
      <point x="132" y="-188" type="line"/>
      <point x="69" y="-188" type="line"/>
      <point x="69" y="762" type="line"/>
      <point x="132" y="762" type="line"/>
    </contour>
  </outline>
</glyph>
<glyph name="braceright" format="1">
  <advance width="316"/>
  <unicode hex="007D"/>
  <outline>
    <contour>
      <point x="300" y="298" type="line"/>
      <point x="241" y="298"/>
      <point x="196" y="270"/>
      <point x="196" y="199" type="curve" smooth="yes"/>
      <point x="196" y="156"/>
      <point x="212" y="90"/>
      <point x="212" y="45" type="curve" smooth="yes"/>
      <point x="212" y="-39"/>
      <point x="173" y="-80"/>
      <point x="95" y="-80" type="curve" smooth="yes"/>
      <point x="25" y="-80" type="line"/>
      <point x="25" y="-38" type="line"/>
      <point x="71" y="-38" type="line" smooth="yes"/>
      <point x="120" y="-38"/>
      <point x="141" y="-12"/>
      <point x="141" y="43" type="curve" smooth="yes"/>
      <point x="141" y="83"/>
      <point x="126" y="144"/>
      <point x="126" y="193" type="curve" smooth="yes"/>
      <point x="126" y="270"/>
      <point x="167" y="297"/>
      <point x="212" y="316" type="curve"/>
      <point x="212" y="324" type="line"/>
      <point x="167" y="343"/>
      <point x="126" y="370"/>
      <point x="126" y="447" type="curve" smooth="yes"/>
      <point x="126" y="496"/>
      <point x="141" y="557"/>
      <point x="141" y="597" type="curve" smooth="yes"/>
      <point x="141" y="652"/>
      <point x="120" y="678"/>
      <point x="71" y="678" type="curve" smooth="yes"/>
      <point x="25" y="678" type="line"/>
      <point x="25" y="720" type="line"/>
      <point x="95" y="720" type="line" smooth="yes"/>
      <point x="173" y="720"/>
      <point x="212" y="679"/>
      <point x="212" y="595" type="curve" smooth="yes"/>
      <point x="212" y="550"/>
      <point x="196" y="484"/>
      <point x="196" y="441" type="curve" smooth="yes"/>
      <point x="196" y="370"/>
      <point x="241" y="342"/>
      <point x="300" y="342" type="curve"/>
    </contour>
  </outline>
</glyph>
<glyph name="exclamdown" format="1">
  <advance width="208"/>
  <unicode hex="00A1"/>
  <outline>
    <contour>
      <point x="154" y="677" type="curve" smooth="yes"/>
      <point x="154" y="648"/>
      <point x="133" y="627"/>
      <point x="104" y="627" type="curve" smooth="yes"/>
      <point x="75" y="627"/>
      <point x="54" y="648"/>
      <point x="54" y="677" type="curve" smooth="yes"/>
      <point x="54" y="706"/>
      <point x="75" y="727"/>
      <point x="104" y="727" type="curve" smooth="yes"/>
      <point x="133" y="727"/>
      <point x="154" y="706"/>
    </contour>
    <contour>
      <point x="151" y="0" type="line"/>
      <point x="58" y="0" type="line"/>
      <point x="83" y="526" type="line"/>
      <point x="125" y="526" type="line"/>
    </contour>
  </outline>
</glyph>
<glyph name="sterling" format="1">
  <advance width="457"/>
  <unicode hex="00A3"/>
  <outline>
    <contour>
      <point x="439" y="173" type="line"/>
      <point x="419" y="47"/>
      <point x="376" y="-6"/>
      <point x="303" y="-6" type="curve" smooth="yes"/>
      <point x="256" y="-6"/>
      <point x="209" y="19"/>
      <point x="160" y="61" type="curve"/>
      <point x="130" y="28"/>
      <point x="88" y="6"/>
      <point x="37" y="-6" type="curve"/>
      <point x="37" y="58" type="line"/>
      <point x="98" y="76"/>
      <point x="137" y="120"/>
      <point x="137" y="216" type="curve" smooth="yes"/>
      <point x="137" y="259"/>
      <point x="130" y="298"/>
      <point x="123" y="333" type="curve"/>
      <point x="31" y="333" type="line"/>
      <point x="31" y="382" type="line"/>
      <point x="110" y="382" type="line"/>
      <point x="96" y="435"/>
      <point x="79" y="489"/>
      <point x="79" y="549" type="curve" smooth="yes"/>
      <point x="79" y="663"/>
      <point x="144" y="732"/>
      <point x="247" y="732" type="curve" smooth="yes"/>
      <point x="341" y="732"/>
      <point x="385" y="679"/>
      <point x="418" y="603" type="curve"/>
      <point x="354" y="570" type="line"/>
      <point x="327" y="632"/>
      <point x="300" y="666"/>
      <point x="248" y="666" type="curve" smooth="yes"/>
      <point x="191" y="666"/>
      <point x="157" y="620"/>
      <point x="157" y="548" type="curve" smooth="yes"/>
      <point x="157" y="495"/>
      <point x="175" y="439"/>
      <point x="190" y="382" type="curve"/>
      <point x="339" y="382" type="line"/>
      <point x="339" y="333" type="line"/>
      <point x="202" y="333" type="line"/>
      <point x="209" y="297"/>
      <point x="214" y="259"/>
      <point x="214" y="217" type="curve" smooth="yes"/>
      <point x="214" y="176"/>
      <point x="207" y="142"/>
      <point x="195" y="113" type="curve"/>
      <point x="232" y="77"/>
      <point x="268" y="61"/>
      <point x="299" y="61" type="curve" smooth="yes"/>
      <point x="344" y="61"/>
      <point x="369" y="95"/>
      <point x="387" y="195" type="curve"/>
    </contour>
  </outline>
</glyph>
<glyph name="copyright" format="1">
  <advance width="657"/>
  <unicode hex="00A9"/>
  <outline>
    <contour>
      <point x="624" y="360" type="curve" smooth="yes"/>
      <point x="624" y="147"/>
      <point x="501" y="-12"/>
      <point x="328" y="-12" type="curve" smooth="yes"/>
      <point x="157" y="-12"/>
      <point x="34" y="146"/>
      <point x="34" y="360" type="curve" smooth="yes"/>
      <point x="34" y="574"/>
      <point x="157" y="732"/>
      <point x="329" y="732" type="curve" smooth="yes"/>
      <point x="501" y="732"/>
      <point x="624" y="574"/>
    </contour>
    <contour>
      <point x="592" y="360" type="curve" smooth="yes"/>
      <point x="592" y="556"/>
      <point x="486" y="704"/>
      <point x="328" y="704" type="curve" smooth="yes"/>
      <point x="170" y="704"/>
      <point x="65" y="557"/>
      <point x="65" y="360" type="curve" smooth="yes"/>
      <point x="65" y="164"/>
      <point x="170" y="16"/>
      <point x="329" y="16" type="curve" smooth="yes"/>
      <point x="487" y="16"/>
      <point x="592" y="163"/>
    </contour>
    <contour>
      <point x="442" y="288" type="line"/>
      <point x="427" y="202"/>
      <point x="394" y="154"/>
      <point x="325" y="154" type="curve" smooth="yes"/>
      <point x="253" y="154"/>
      <point x="206" y="222"/>
      <point x="206" y="338" type="curve" smooth="yes"/>
      <point x="206" y="390" type="line" smooth="yes"/>
      <point x="206" y="507"/>
      <point x="253" y="575"/>
      <point x="325" y="575" type="curve" smooth="yes"/>
      <point x="393" y="575"/>
      <point x="425" y="528"/>
      <point x="440" y="449" type="curve"/>
      <point x="385" y="434" type="line"/>
      <point x="375" y="498"/>
      <point x="359" y="529"/>
      <point x="325" y="529" type="curve" smooth="yes"/>
      <point x="283" y="529"/>
      <point x="265" y="472"/>
      <point x="265" y="395" type="curve" smooth="yes"/>
      <point x="265" y="335" type="line" smooth="yes"/>
      <point x="265" y="256"/>
      <point x="286" y="201"/>
      <point x="326" y="201" type="curve" smooth="yes"/>
      <point x="361" y="201"/>
      <point x="377" y="235"/>
      <point x="388" y="302" type="curve"/>
    </contour>
  </outline>
</glyph>
<glyph name="ordfeminine" format="1">
  <advance width="293"/>
  <unicode hex="00AA"/>
  <outline>
    <contour>
      <point x="267" y="430" type="line"/>
      <point x="223" y="429"/>
      <point x="198" y="444"/>
      <point x="190" y="474" type="curve"/>
      <point x="189" y="474" type="line"/>
      <point x="166" y="444"/>
      <point x="139" y="428"/>
      <point x="107" y="428" type="curve" smooth="yes"/>
      <point x="65" y="428"/>
      <point x="31" y="455"/>
      <point x="31" y="507" type="curve" smooth="yes"/>
      <point x="31" y="564"/>
      <point x="82" y="603"/>
      <point x="185" y="606" type="curve"/>
      <point x="185" y="633" type="line" smooth="yes"/>
      <point x="185" y="665"/>
      <point x="174" y="681"/>
      <point x="147" y="681" type="curve" smooth="yes"/>
      <point x="121" y="681"/>
      <point x="95" y="673"/>
      <point x="66" y="655" type="curve"/>
      <point x="49" y="692" type="line"/>
      <point x="82" y="710"/>
      <point x="117" y="725"/>
      <point x="160" y="725" type="curve" smooth="yes"/>
      <point x="217" y="725"/>
      <point x="242" y="699"/>
      <point x="242" y="637" type="curve" smooth="yes"/>
      <point x="242" y="491" type="line" smooth="yes"/>
      <point x="242" y="472"/>
      <point x="249" y="460"/>
      <point x="267" y="459" type="curve"/>
    </contour>
    <contour>
      <point x="258" y="338" type="line"/>
      <point x="35" y="338" type="line"/>
      <point x="35" y="377" type="line"/>
      <point x="258" y="377" type="line"/>
    </contour>
    <contour>
      <point x="185" y="504" type="curve"/>
      <point x="185" y="577" type="line"/>
      <point x="114" y="575"/>
      <point x="86" y="546"/>
      <point x="86" y="512" type="curve" smooth="yes"/>
      <point x="86" y="484"/>
      <point x="103" y="468"/>
      <point x="127" y="468" type="curve" smooth="yes"/>
      <point x="149" y="468"/>
      <point x="169" y="480"/>
    </contour>
  </outline>
</glyph>
<glyph name="guillemotleft" format="1">
  <advance width="372"/>
  <unicode hex="00AB"/>
  <outline>
    <contour>
      <point x="344" y="76" type="line"/>
      <point x="299" y="76" type="line"/>
      <point x="173" y="260" type="line"/>
      <point x="299" y="445" type="line"/>
      <point x="344" y="445" type="line"/>
      <point x="255" y="260" type="line"/>
    </contour>
    <contour>
      <point x="187" y="76" type="line"/>
      <point x="142" y="76" type="line"/>
      <point x="16" y="260" type="line"/>
      <point x="142" y="445" type="line"/>
      <point x="187" y="445" type="line"/>
      <point x="99" y="260" type="line"/>
    </contour>
  </outline>
</glyph>
<glyph name="acute" format="1">
  <advance width="393"/>
  <unicode hex="00B4"/>
  <outline>
    <contour>
      <point x="288" y="702" type="line"/>
      <point x="176" y="579" type="line"/>
      <point x="125" y="579" type="line"/>
      <point x="194" y="702" type="line"/>
    </contour>
  </outline>
</glyph>
<glyph name="cedilla" format="1">
  <advance width="393"/>
  <unicode hex="00B8"/>
  <outline>
    <contour>
      <point x="292" y="-86" type="curve" smooth="yes"/>
      <point x="292" y="-139"/>
      <point x="233" y="-165"/>
      <point x="114" y="-162" type="curve"/>
      <point x="114" y="-140" type="line"/>
      <point x="208" y="-138"/>
      <point x="241" y="-122"/>
      <point x="241" y="-96" type="curve" smooth="yes"/>
      <point x="241" y="-82"/>
      <point x="231" y="-73"/>
      <point x="211" y="-73" type="curve" smooth="yes"/>
      <point x="195" y="-73"/>
      <point x="181" y="-76"/>
      <point x="168" y="-83" type="curve"/>
      <point x="148" y="-69" type="line"/>
      <point x="189" y="0" type="line"/>
      <point x="221" y="0" type="line"/>
      <point x="195" y="-43" type="line"/>
      <point x="205" y="-39"/>
      <point x="218" y="-37"/>
      <point x="233" y="-37" type="curve" smooth="yes"/>
      <point x="269" y="-37"/>
      <point x="292" y="-54"/>
    </contour>
  </outline>
</glyph>
<glyph name="ordmasculine" format="1">
  <advance width="289"/>
  <unicode hex="00BA"/>
  <outline>
    <contour>
      <point x="258" y="570" type="line" smooth="yes"/>
      <point x="258" y="483"/>
      <point x="214" y="425"/>
      <point x="145" y="425" type="curve" smooth="yes"/>
      <point x="76" y="425"/>
      <point x="31" y="483"/>
      <point x="31" y="570" type="curve"/>
      <point x="30" y="571"/>
      <point x="30" y="582"/>
      <point x="31" y="583" type="curve"/>
      <point x="31" y="669"/>
      <point x="76" y="726"/>
      <point x="145" y="726" type="curve" smooth="yes"/>
      <point x="214" y="726"/>
      <point x="258" y="669"/>
      <point x="258" y="583" type="curve" smooth="yes"/>
    </contour>
    <contour>
      <point x="253" y="338" type="line"/>
      <point x="36" y="338" type="line"/>
      <point x="36" y="377" type="line"/>
      <point x="253" y="377" type="line"/>
    </contour>
    <contour>
      <point x="201" y="566" type="curve" smooth="yes"/>
      <point x="201" y="584" type="line" smooth="yes"/>
      <point x="201" y="645"/>
      <point x="181" y="685"/>
      <point x="145" y="685" type="curve" smooth="yes"/>
      <point x="108" y="685"/>
      <point x="88" y="647"/>
      <point x="88" y="586" type="curve"/>
      <point x="87" y="585"/>
      <point x="87" y="569"/>
      <point x="88" y="568" type="curve"/>
      <point x="88" y="507"/>
      <point x="108" y="467"/>
      <point x="145" y="467" type="curve" smooth="yes"/>
      <point x="181" y="467"/>
      <point x="201" y="505"/>
    </contour>
  </outline>
</glyph>
<glyph name="questiondown" format="1">
  <advance width="370"/>
  <unicode hex="00BF"/>
  <outline>
    <contour>
      <point x="249" y="677" type="curve" smooth="yes"/>
      <point x="249" y="648"/>
      <point x="229" y="627"/>
      <point x="199" y="627" type="curve" smooth="yes"/>
      <point x="171" y="627"/>
      <point x="149" y="648"/>
      <point x="149" y="677" type="curve" smooth="yes"/>
      <point x="149" y="706"/>
      <point x="171" y="727"/>
      <point x="199" y="727" type="curve" smooth="yes"/>
      <point x="229" y="727"/>
      <point x="249" y="706"/>
    </contour>
    <contour>
      <point x="354" y="147" type="line"/>
      <point x="331" y="45"/>
      <point x="279" y="-12"/>
      <point x="184" y="-12" type="curve" smooth="yes"/>
      <point x="88" y="-12"/>
      <point x="31" y="56"/>
      <point x="31" y="157" type="curve" smooth="yes"/>
      <point x="31" y="243"/>
      <point x="59" y="282"/>
      <point x="118" y="350" type="curve" smooth="yes"/>
      <point x="163" y="402"/>
      <point x="176" y="434"/>
      <point x="178" y="526" type="curve"/>
      <point x="223" y="526" type="line"/>
      <point x="231" y="409"/>
      <point x="221" y="367"/>
      <point x="165" y="300" type="curve" smooth="yes"/>
      <point x="126" y="252"/>
      <point x="109" y="213"/>
      <point x="109" y="161" type="curve" smooth="yes"/>
      <point x="109" y="96"/>
      <point x="139" y="53"/>
      <point x="188" y="53" type="curve" smooth="yes"/>
      <point x="238" y="53"/>
      <point x="267" y="88"/>
      <point x="289" y="170" type="curve"/>
    </contour>
  </outline>
</glyph>
<glyph name="Aring" format="1">
  <advance width="532"/>
  <unicode hex="00C5"/>
  <outline>
    <contour>
      <point x="346" y="827" type="curve" smooth="yes"/>
      <point x="346" y="785"/>
      <point x="312" y="753"/>
      <point x="267" y="753" type="curve" smooth="yes"/>
      <point x="220" y="753"/>
      <point x="187" y="785"/>
      <point x="187" y="827" type="curve" smooth="yes"/>
      <point x="187" y="870"/>
      <point x="220" y="902"/>
      <point x="267" y="902" type="curve" smooth="yes"/>
      <point x="312" y="902"/>
      <point x="346" y="870"/>
    </contour>
    <contour>
      <point x="513" y="0" type="line"/>
      <point x="428" y="0" type="line"/>
      <point x="382" y="185" type="line"/>
      <point x="146" y="185" type="line"/>
      <point x="100" y="0" type="line"/>
      <point x="18" y="0" type="line"/>
      <point x="209" y="724" type="line"/>
      <point x="323" y="724" type="line"/>
    </contour>
    <contour>
      <point x="310" y="828" type="curve" smooth="yes"/>
      <point x="310" y="853"/>
      <point x="292" y="873"/>
      <point x="267" y="873" type="curve" smooth="yes"/>
      <point x="242" y="873"/>
      <point x="224" y="853"/>
      <point x="224" y="828" type="curve" smooth="yes"/>
      <point x="224" y="803"/>
      <point x="242" y="781"/>
      <point x="267" y="781" type="curve" smooth="yes"/>
      <point x="292" y="781"/>
      <point x="310" y="803"/>
    </contour>
    <contour>
      <point x="370" y="246" type="line"/>
      <point x="267" y="650" type="line"/>
      <point x="262" y="650" type="line"/>
      <point x="158" y="246" type="line"/>
    </contour>
  </outline>
</glyph>
<glyph name="Ccedilla" format="1">
  <advance width="459"/>
  <unicode hex="00C7"/>
  <outline>
    <contour>
      <point x="433" y="212" type="line"/>
      <point x="411" y="76"/>
      <point x="360" y="-7"/>
      <point x="251" y="-12" type="curve"/>
      <point x="232" y="-43" type="line"/>
      <point x="243" y="-39"/>
      <point x="255" y="-37"/>
      <point x="270" y="-37" type="curve" smooth="yes"/>
      <point x="306" y="-37"/>
      <point x="329" y="-54"/>
      <point x="329" y="-86" type="curve" smooth="yes"/>
      <point x="329" y="-139"/>
      <point x="270" y="-165"/>
      <point x="151" y="-162" type="curve"/>
      <point x="151" y="-140" type="line"/>
      <point x="245" y="-138"/>
      <point x="278" y="-122"/>
      <point x="278" y="-96" type="curve" smooth="yes"/>
      <point x="278" y="-82"/>
      <point x="268" y="-73"/>
      <point x="249" y="-73" type="curve" smooth="yes"/>
      <point x="233" y="-73"/>
      <point x="219" y="-76"/>
      <point x="205" y="-83" type="curve"/>
      <point x="185" y="-69" type="line"/>
      <point x="220" y="-11" type="line"/>
      <point x="107" y="0"/>
      <point x="38" y="120"/>
      <point x="38" y="313" type="curve" smooth="yes"/>
      <point x="38" y="406" type="line" smooth="yes"/>
      <point x="38" y="610"/>
      <point x="116" y="732"/>
      <point x="240" y="732" type="curve" smooth="yes"/>
      <point x="352" y="732"/>
      <point x="408" y="651"/>
      <point x="429" y="520" type="curve"/>
      <point x="352" y="499" type="line"/>
      <point x="335" y="611"/>
      <point x="304" y="668"/>
      <point x="240" y="668" type="curve" smooth="yes"/>
      <point x="159" y="668"/>
      <point x="121" y="562"/>
      <point x="121" y="415" type="curve" smooth="yes"/>
      <point x="121" y="307" type="line" smooth="yes"/>
      <point x="121" y="157"/>
      <point x="162" y="52"/>
      <point x="242" y="52" type="curve" smooth="yes"/>
      <point x="306" y="52"/>
      <point x="338" y="109"/>
      <point x="358" y="230" type="curve"/>
    </contour>
  </outline>
</glyph>
<glyph name="Eth" format="1">
  <advance width="513"/>
  <unicode hex="00D0"/>
  <outline>
    <contour>
      <point x="474" y="317" type="line" smooth="yes"/>
      <point x="474" y="113"/>
      <point x="383" y="0"/>
      <point x="228" y="0" type="curve" smooth="yes"/>
      <point x="84" y="0" type="line"/>
      <point x="84" y="344" type="line"/>
      <point x="19" y="344" type="line"/>
      <point x="19" y="407" type="line"/>
      <point x="84" y="407" type="line"/>
      <point x="84" y="720" type="line"/>
      <point x="231" y="720" type="line" smooth="yes"/>
      <point x="386" y="720"/>
      <point x="474" y="607"/>
      <point x="474" y="404" type="curve" smooth="yes"/>
    </contour>
    <contour>
      <point x="391" y="301" type="curve" smooth="yes"/>
      <point x="391" y="417" type="line" smooth="yes"/>
      <point x="391" y="571"/>
      <point x="334" y="658"/>
      <point x="225" y="658" type="curve" smooth="yes"/>
      <point x="168" y="658" type="line"/>
      <point x="168" y="407" type="line"/>
      <point x="262" y="407" type="line"/>
      <point x="262" y="344" type="line"/>
      <point x="168" y="344" type="line"/>
      <point x="168" y="62" type="line"/>
      <point x="228" y="62" type="line" smooth="yes"/>
      <point x="332" y="62"/>
      <point x="391" y="149"/>
    </contour>
  </outline>
</glyph>
<glyph name="multiply" format="1">
  <advance width="481"/>
  <unicode hex="00D7"/>
  <outline>
    <contour>
      <point x="424" y="215" type="line"/>
      <point x="380" y="170" type="line"/>
      <point x="240" y="312" type="line"/>
      <point x="100" y="170" type="line"/>
      <point x="56" y="215" type="line"/>
      <point x="197" y="354" type="line"/>
      <point x="56" y="494" type="line"/>
      <point x="100" y="538" type="line"/>
      <point x="240" y="396" type="line"/>
      <point x="380" y="538" type="line"/>
      <point x="424" y="494" type="line"/>
      <point x="283" y="354" type="line"/>
    </contour>
  </outline>
</glyph>
<glyph name="Oslash" format="1">
  <advance width="491"/>
  <unicode hex="00D8"/>
  <outline>
    <contour>
      <point x="455" y="817" type="line"/>
      <point x="389" y="657" type="line"/>
      <point x="431" y="602"/>
      <point x="453" y="517"/>
      <point x="453" y="407" type="curve" smooth="yes"/>
      <point x="453" y="314" type="line" smooth="yes"/>
      <point x="453" y="110"/>
      <point x="375" y="-12"/>
      <point x="246" y="-12" type="curve" smooth="yes"/>
      <point x="203" y="-12"/>
      <point x="165" y="3"/>
      <point x="136" y="28" type="curve"/>
      <point x="86" y="-97" type="line"/>
      <point x="36" y="-97" type="line"/>
      <point x="102" y="63" type="line"/>
      <point x="61" y="118"/>
      <point x="38" y="202"/>
      <point x="38" y="313" type="curve" smooth="yes"/>
      <point x="38" y="406" type="line" smooth="yes"/>
      <point x="38" y="610"/>
      <point x="116" y="732"/>
      <point x="246" y="732" type="curve" smooth="yes"/>
      <point x="288" y="732"/>
      <point x="326" y="718"/>
      <point x="356" y="692" type="curve"/>
      <point x="405" y="817" type="line"/>
    </contour>
    <contour>
      <point x="328" y="623" type="line"/>
      <point x="308" y="654"/>
      <point x="282" y="672"/>
      <point x="246" y="672" type="curve" smooth="yes"/>
      <point x="160" y="672"/>
      <point x="121" y="565"/>
      <point x="121" y="424" type="curve" smooth="yes"/>
      <point x="121" y="321" type="line" smooth="yes"/>
      <point x="121" y="251"/>
      <point x="127" y="189"/>
      <point x="141" y="146" type="curve"/>
    </contour>
    <contour>
      <point x="370" y="296" type="curve" smooth="yes"/>
      <point x="370" y="398" type="line" smooth="yes"/>
      <point x="370" y="471"/>
      <point x="365" y="527"/>
      <point x="350" y="574" type="curve"/>
      <point x="163" y="97" type="line"/>
      <point x="182" y="66"/>
      <point x="211" y="48"/>
      <point x="246" y="48" type="curve" smooth="yes"/>
      <point x="331" y="48"/>
      <point x="370" y="154"/>
    </contour>
  </outline>
</glyph>
<glyph name="Thorn" format="1">
  <advance width="451"/>
  <unicode hex="00DE"/>
  <outline>
    <contour>
      <point x="425" y="373" type="curve" smooth="yes"/>
      <point x="425" y="234"/>
      <point x="345" y="158"/>
      <point x="205" y="158" type="curve" smooth="yes"/>
      <point x="142" y="158" type="line"/>
      <point x="142" y="0" type="line"/>
      <point x="59" y="0" type="line"/>
      <point x="59" y="720" type="line"/>
      <point x="142" y="720" type="line"/>
      <point x="142" y="583" type="line"/>
      <point x="207" y="583" type="line" smooth="yes"/>
      <point x="344" y="583"/>
      <point x="425" y="510"/>
    </contour>
    <contour>
      <point x="345" y="371" type="curve" smooth="yes"/>
      <point x="345" y="467"/>
      <point x="300" y="520"/>
      <point x="210" y="520" type="curve" smooth="yes"/>
      <point x="141" y="520" type="line"/>
      <point x="141" y="221" type="line"/>
      <point x="213" y="221" type="line" smooth="yes"/>
      <point x="300" y="221"/>
      <point x="345" y="273"/>
    </contour>
  </outline>
</glyph>
<glyph name="ae" format="1">
  <advance width="611"/>
  <unicode hex="00E6"/>
  <outline>
    <contour>
      <point x="581" y="243" type="line"/>
      <point x="335" y="243" type="line"/>
      <point x="335" y="227" type="line" smooth="yes"/>
      <point x="335" y="113"/>
      <point x="377" y="51"/>
      <point x="446" y="51" type="curve" smooth="yes"/>
      <point x="485" y="51"/>
      <point x="523" y="70"/>
      <point x="556" y="103" type="curve"/>
      <point x="580" y="53" type="line"/>
      <point x="541" y="16"/>
      <point x="494" y="-9"/>
      <point x="435" y="-9" type="curve" smooth="yes"/>
      <point x="370" y="-9"/>
      <point x="319" y="25"/>
      <point x="292" y="85" type="curve"/>
      <point x="290" y="85" type="line"/>
      <point x="251" y="23"/>
      <point x="199" y="-7"/>
      <point x="142" y="-7" type="curve" smooth="yes"/>
      <point x="74" y="-7"/>
      <point x="22" y="38"/>
      <point x="22" y="127" type="curve" smooth="yes"/>
      <point x="22" y="225"/>
      <point x="99" y="297"/>
      <point x="260" y="311" type="curve"/>
      <point x="260" y="380" type="line" smooth="yes"/>
      <point x="260" y="439"/>
      <point x="239" y="467"/>
      <point x="196" y="467" type="curve" smooth="yes"/>
      <point x="157" y="467"/>
      <point x="122" y="452"/>
      <point x="74" y="423" type="curve"/>
      <point x="51" y="474" type="line"/>
      <point x="100" y="504"/>
      <point x="152" y="526"/>
      <point x="215" y="526" type="curve" smooth="yes"/>
      <point x="278" y="526"/>
      <point x="302" y="495"/>
      <point x="308" y="441" type="curve"/>
      <point x="313" y="441" type="line"/>
      <point x="333" y="495"/>
      <point x="373" y="531"/>
      <point x="426" y="531" type="curve" smooth="yes"/>
      <point x="523" y="531"/>
      <point x="581" y="426"/>
      <point x="581" y="264" type="curve" smooth="yes"/>
    </contour>
    <contour>
      <point x="508" y="285" type="line"/>
      <point x="506" y="404"/>
      <point x="475" y="478"/>
      <point x="424" y="478" type="curve" smooth="yes"/>
      <point x="367" y="478"/>
      <point x="335" y="407"/>
      <point x="335" y="288" type="curve" smooth="yes"/>
      <point x="335" y="285" type="line"/>
    </contour>
    <contour>
      <point x="274" y="127" type="curve"/>
      <point x="266" y="155"/>
      <point x="262" y="192"/>
      <point x="262" y="234" type="curve" smooth="yes"/>
      <point x="262" y="235"/>
      <point x="262" y="272"/>
      <point x="262" y="272" type="curve"/>
      <point x="142" y="260"/>
      <point x="97" y="201"/>
      <point x="97" y="136" type="curve" smooth="yes"/>
      <point x="97" y="79"/>
      <point x="127" y="46"/>
      <point x="170" y="46" type="curve" smooth="yes"/>
      <point x="205" y="46"/>
      <point x="244" y="69"/>
    </contour>
  </outline>
</glyph>
<glyph name="ccedilla" format="1">
  <advance width="363"/>
  <unicode hex="00E7"/>
  <outline>
    <contour>
      <point x="341" y="136" type="line"/>
      <point x="323" y="51"/>
      <point x="279" y="-6"/>
      <point x="202" y="-10" type="curve"/>
      <point x="182" y="-43" type="line"/>
      <point x="193" y="-39"/>
      <point x="205" y="-37"/>
      <point x="219" y="-37" type="curve" smooth="yes"/>
      <point x="256" y="-37"/>
      <point x="279" y="-54"/>
      <point x="279" y="-86" type="curve" smooth="yes"/>
      <point x="279" y="-139"/>
      <point x="220" y="-165"/>
      <point x="101" y="-162" type="curve"/>
      <point x="101" y="-140" type="line"/>
      <point x="196" y="-138"/>
      <point x="229" y="-122"/>
      <point x="229" y="-96" type="curve" smooth="yes"/>
      <point x="229" y="-82"/>
      <point x="218" y="-73"/>
      <point x="199" y="-73" type="curve" smooth="yes"/>
      <point x="183" y="-73"/>
      <point x="169" y="-76"/>
      <point x="155" y="-83" type="curve"/>
      <point x="136" y="-69" type="line"/>
      <point x="172" y="-8" type="line"/>
      <point x="84" y="4"/>
      <point x="31" y="97"/>
      <point x="31" y="232" type="curve" smooth="yes"/>
      <point x="31" y="287" type="line" smooth="yes"/>
      <point x="31" y="432"/>
      <point x="97" y="531"/>
      <point x="194" y="531" type="curve" smooth="yes"/>
      <point x="281" y="531"/>
      <point x="323" y="467"/>
      <point x="339" y="382" type="curve"/>
      <point x="273" y="366" type="line"/>
      <point x="259" y="434"/>
      <point x="238" y="474"/>
      <point x="194" y="474" type="curve" smooth="yes"/>
      <point x="141" y="474"/>
      <point x="108" y="404"/>
      <point x="108" y="293" type="curve" smooth="yes"/>
      <point x="108" y="229" type="line" smooth="yes"/>
      <point x="108" y="118"/>
      <point x="142" y="46"/>
      <point x="198" y="46" type="curve" smooth="yes"/>
      <point x="237" y="46"/>
      <point x="264" y="83"/>
      <point x="278" y="152" type="curve"/>
    </contour>
  </outline>
</glyph>
<glyph name="oslash" format="1">
  <advance width="402"/>
  <unicode hex="00F8"/>
  <outline>
    <contour>
      <point x="370" y="616" type="line"/>
      <point x="313" y="479" type="line"/>
      <point x="350" y="434"/>
      <point x="371" y="366"/>
      <point x="371" y="282" type="curve" smooth="yes"/>
      <point x="371" y="240" type="line" smooth="yes"/>
      <point x="371" y="92"/>
      <point x="306" y="-10"/>
      <point x="200" y="-10" type="curve" smooth="yes"/>
      <point x="171" y="-10"/>
      <point x="145" y="-1"/>
      <point x="122" y="15" type="curve"/>
      <point x="78" y="-95" type="line"/>
      <point x="32" y="-95" type="line"/>
      <point x="89" y="43" type="line"/>
      <point x="51" y="87"/>
      <point x="31" y="154"/>
      <point x="31" y="240" type="curve" smooth="yes"/>
      <point x="31" y="282" type="line" smooth="yes"/>
      <point x="31" y="429"/>
      <point x="96" y="531"/>
      <point x="202" y="531" type="curve" smooth="yes"/>
      <point x="232" y="531"/>
      <point x="259" y="522"/>
      <point x="280" y="505" type="curve"/>
      <point x="324" y="616" type="line"/>
    </contour>
    <contour>
      <point x="257" y="446" type="line"/>
      <point x="242" y="467"/>
      <point x="224" y="478"/>
      <point x="200" y="478" type="curve" smooth="yes"/>
      <point x="142" y="478"/>
      <point x="108" y="401"/>
      <point x="108" y="287" type="curve" smooth="yes"/>
      <point x="108" y="237" type="line" smooth="yes"/>
      <point x="108" y="196"/>
      <point x="115" y="143"/>
      <point x="125" y="113" type="curve"/>
    </contour>
    <contour>
      <point x="293" y="234" type="curve" smooth="yes"/>
      <point x="293" y="282" type="line" smooth="yes"/>
      <point x="293" y="332"/>
      <point x="287" y="377"/>
      <point x="277" y="408" type="curve"/>
      <point x="145" y="74" type="line"/>
      <point x="160" y="54"/>
      <point x="179" y="42"/>
      <point x="202" y="42" type="curve" smooth="yes"/>
      <point x="260" y="42"/>
      <point x="293" y="121"/>
    </contour>
  </outline>
</glyph>
<glyph name="Lslash" format="1">
  <advance width="420"/>
  <unicode hex="0141"/>
  <outline>
    <contour>
      <point x="410" y="0" type="line"/>
      <point x="84" y="0" type="line"/>
      <point x="84" y="317" type="line"/>
      <point x="21" y="279" type="line"/>
      <point x="21" y="352" type="line"/>
      <point x="84" y="389" type="line"/>
      <point x="84" y="720" type="line"/>
      <point x="168" y="720" type="line"/>
      <point x="168" y="433" type="line"/>
      <point x="278" y="496" type="line"/>
      <point x="278" y="423" type="line"/>
      <point x="168" y="360" type="line"/>
      <point x="168" y="67" type="line"/>
      <point x="410" y="67" type="line"/>
    </contour>
  </outline>
</glyph>
<glyph name="lslash" format="1">
  <advance width="261"/>
  <unicode hex="0142"/>
  <outline>
    <contour>
      <point x="241" y="393" type="line"/>
      <point x="171" y="354" type="line"/>
      <point x="171" y="0" type="line"/>
      <point x="90" y="0" type="line"/>
      <point x="90" y="319" type="line"/>
      <point x="21" y="281" type="line"/>
      <point x="21" y="351" type="line"/>
      <point x="90" y="388" type="line"/>
      <point x="90" y="738" type="line"/>
      <point x="171" y="760" type="line"/>
      <point x="171" y="424" type="line"/>
      <point x="241" y="462" type="line"/>
    </contour>
  </outline>
</glyph>
<glyph name="OE" format="1">
  <advance width="709"/>
  <unicode hex="0152"/>
  <outline>
    <contour>
      <point x="685" y="0" type="line"/>
      <point x="280" y="0" type="line" smooth="yes"/>
      <point x="127" y="0"/>
      <point x="38" y="112"/>
      <point x="38" y="316" type="curve" smooth="yes"/>
      <point x="38" y="403" type="line" smooth="yes"/>
      <point x="38" y="610"/>
      <point x="131" y="720"/>
      <point x="283" y="720" type="curve" smooth="yes"/>
      <point x="675" y="720" type="line"/>
      <point x="675" y="654" type="line"/>
      <point x="425" y="654" type="line"/>
      <point x="425" y="408" type="line"/>
      <point x="626" y="408" type="line"/>
      <point x="626" y="344" type="line"/>
      <point x="425" y="344" type="line"/>
      <point x="425" y="66" type="line"/>
      <point x="685" y="66" type="line"/>
    </contour>
    <contour>
      <point x="344" y="61" type="line"/>
      <point x="344" y="659" type="line"/>
      <point x="283" y="659" type="line" smooth="yes"/>
      <point x="179" y="659"/>
      <point x="119" y="570"/>
      <point x="119" y="419" type="curve" smooth="yes"/>
      <point x="119" y="303" type="line" smooth="yes"/>
      <point x="119" y="150"/>
      <point x="178" y="61"/>
      <point x="286" y="61" type="curve" smooth="yes"/>
    </contour>
  </outline>
</glyph>
<glyph name="circumflex" format="1">
  <advance width="393"/>
  <unicode hex="02C6"/>
  <outline>
    <contour>
      <point x="315" y="575" type="line"/>
      <point x="276" y="575" type="line"/>
      <point x="196" y="653" type="line"/>
      <point x="117" y="575" type="line"/>
      <point x="78" y="575" type="line"/>
      <point x="164" y="702" type="line"/>
      <point x="229" y="702" type="line"/>
    </contour>
  </outline>
</glyph>
<glyph name="caron" format="1">
  <advance width="393"/>
  <unicode hex="02C7"/>
  <outline>
    <contour>
      <point x="315" y="706" type="line"/>
      <point x="229" y="579" type="line"/>
      <point x="164" y="579" type="line"/>
      <point x="78" y="706" type="line"/>
      <point x="117" y="706" type="line"/>
      <point x="197" y="628" type="line"/>
      <point x="276" y="706" type="line"/>
    </contour>
  </outline>
</glyph>
<glyph name="dotaccent" format="1">
  <advance width="393"/>
  <unicode hex="02D9"/>
  <outline>
    <contour>
      <point x="236" y="579" type="line"/>
      <point x="157" y="579" type="line"/>
      <point x="157" y="663" type="line"/>
      <point x="236" y="663" type="line"/>
    </contour>
  </outline>
</glyph>
<glyph name="ring" format="1">
  <advance width="393"/>
  <unicode hex="02DA"/>
  <outline>
    <contour>
      <point x="276" y="646" type="curve" smooth="yes"/>
      <point x="276" y="604"/>
      <point x="242" y="572"/>
      <point x="197" y="572" type="curve" smooth="yes"/>
      <point x="150" y="572"/>
      <point x="117" y="604"/>
      <point x="117" y="646" type="curve" smooth="yes"/>
      <point x="117" y="689"/>
      <point x="150" y="721"/>
      <point x="197" y="721" type="curve" smooth="yes"/>
      <point x="242" y="721"/>
      <point x="276" y="689"/>
    </contour>
    <contour>
      <point x="240" y="647" type="curve" smooth="yes"/>
      <point x="240" y="672"/>
      <point x="222" y="692"/>
      <point x="197" y="692" type="curve" smooth="yes"/>
      <point x="172" y="692"/>
      <point x="154" y="672"/>
      <point x="154" y="647" type="curve" smooth="yes"/>
      <point x="154" y="622"/>
      <point x="172" y="600"/>
      <point x="197" y="600" type="curve" smooth="yes"/>
      <point x="222" y="600"/>
      <point x="240" y="622"/>
    </contour>
  </outline>
</glyph>
<glyph name="tilde" format="1">
  <advance width="393"/>
  <unicode hex="02DC"/>
  <outline>
    <contour>
      <point x="322" y="673" type="line"/>
      <point x="324" y="609"/>
      <point x="302" y="579"/>
      <point x="256" y="579" type="curve" smooth="yes"/>
      <point x="210" y="579"/>
      <point x="170" y="621"/>
      <point x="139" y="621" type="curve" smooth="yes"/>
      <point x="118" y="621"/>
      <point x="109" y="609"/>
      <point x="109" y="581" type="curve"/>
      <point x="71" y="581" type="line"/>
      <point x="69" y="645"/>
      <point x="91" y="675"/>
      <point x="136" y="675" type="curve" smooth="yes"/>
      <point x="184" y="675"/>
      <point x="223" y="633"/>
      <point x="253" y="633" type="curve" smooth="yes"/>
      <point x="274" y="633"/>
      <point x="284" y="646"/>
      <point x="284" y="673" type="curve"/>
    </contour>
  </outline>
</glyph>
<glyph name="hungarumlaut" format="1">
  <advance width="393"/>
  <unicode hex="02DD"/>
  <outline>
    <contour>
      <point x="349" y="702" type="line"/>
      <point x="239" y="579" type="line"/>
      <point x="193" y="579" type="line"/>
      <point x="262" y="702" type="line"/>
    </contour>
    <contour>
      <point x="206" y="702" type="line"/>
      <point x="94" y="579" type="line"/>
      <point x="49" y="579" type="line"/>
      <point x="118" y="702" type="line"/>
    </contour>
  </outline>
</glyph>
<glyph name="endash" format="1">
  <advance width="396"/>
  <unicode hex="2013"/>
  <outline>
    <contour>
      <point x="368" y="250" type="line"/>
      <point x="29" y="250" type="line"/>
      <point x="29" y="315" type="line"/>
      <point x="368" y="315" type="line"/>
    </contour>
  </outline>
</glyph>
<glyph name="emdash" format="1">
  <advance width="794"/>
  <unicode hex="2014"/>
  <outline>
    <contour>
      <point x="765" y="250" type="line"/>
      <point x="29" y="250" type="line"/>
      <point x="29" y="315" type="line"/>
      <point x="765" y="315" type="line"/>
    </contour>
  </outline>
</glyph>
<glyph name="quoteleft" format="1">
  <advance width="161"/>
  <unicode hex="2018"/>
  <unicode hex="02BB"/>
  <outline>
    <contour>
      <point x="136" y="506" type="line"/>
      <point x="100" y="506" type="line"/>
      <point x="25" y="720" type="line"/>
      <point x="106" y="720" type="line"/>
    </contour>
  </outline>
</glyph>
<glyph name="quotesinglbase" format="1">
  <advance width="168"/>
  <unicode hex="201A"/>
  <outline>
    <contour>
      <point x="135" y="104" type="line"/>
      <point x="61" y="-110" type="line"/>
      <point x="25" y="-110" type="line"/>
      <point x="54" y="104" type="line"/>
    </contour>
  </outline>
</glyph>
<glyph name="dagger" format="1">
  <advance width="353"/>
  <unicode hex="2020"/>
  <outline>
    <contour>
      <point x="329" y="460" type="line"/>
      <point x="197" y="479" type="line"/>
      <point x="216" y="344" type="line"/>
      <point x="191" y="0" type="line"/>
      <point x="162" y="0" type="line"/>
      <point x="137" y="344" type="line"/>
      <point x="156" y="479" type="line"/>
      <point x="23" y="460" type="line"/>
      <point x="23" y="529" type="line"/>
      <point x="156" y="509" type="line"/>
      <point x="137" y="720" type="line"/>
      <point x="216" y="720" type="line"/>
      <point x="197" y="509" type="line"/>
      <point x="329" y="529" type="line"/>
    </contour>
  </outline>
</glyph>
<glyph name="daggerdbl" format="1">
  <advance width="374"/>
  <unicode hex="2021"/>
  <outline>
    <contour>
      <point x="339" y="171" type="line"/>
      <point x="206" y="191" type="line"/>
      <point x="226" y="0" type="line"/>
      <point x="146" y="0" type="line"/>
      <point x="167" y="191" type="line"/>
      <point x="34" y="171" type="line"/>
      <point x="34" y="240" type="line"/>
      <point x="167" y="221" type="line"/>
      <point x="147" y="360" type="line"/>
      <point x="167" y="499" type="line"/>
      <point x="34" y="480" type="line"/>
      <point x="34" y="549" type="line"/>
      <point x="167" y="529" type="line"/>
      <point x="146" y="720" type="line"/>
      <point x="226" y="720" type="line"/>
      <point x="206" y="529" type="line"/>
      <point x="339" y="549" type="line"/>
      <point x="339" y="480" type="line"/>
      <point x="206" y="499" type="line"/>
      <point x="225" y="360" type="line"/>
      <point x="206" y="221" type="line"/>
      <point x="339" y="240" type="line"/>
    </contour>
  </outline>
</glyph>
<glyph name="ellipsis" format="1">
  <advance width="518"/>
  <unicode hex="2026"/>
  <outline>
    <contour>
      <point x="483" y="42" type="curve" smooth="yes"/>
      <point x="483" y="14"/>
      <point x="463" y="-7"/>
      <point x="435" y="-7" type="curve" smooth="yes"/>
      <point x="406" y="-7"/>
      <point x="386" y="14"/>
      <point x="386" y="42" type="curve" smooth="yes"/>
      <point x="386" y="70"/>
      <point x="406" y="91"/>
      <point x="435" y="91" type="curve" smooth="yes"/>
      <point x="463" y="91"/>
      <point x="483" y="70"/>
    </contour>
    <contour>
      <point x="307" y="42" type="curve" smooth="yes"/>
      <point x="307" y="14"/>
      <point x="287" y="-7"/>
      <point x="259" y="-7" type="curve" smooth="yes"/>
      <point x="231" y="-7"/>
      <point x="211" y="14"/>
      <point x="211" y="42" type="curve" smooth="yes"/>
      <point x="211" y="70"/>
      <point x="231" y="91"/>
      <point x="259" y="91" type="curve" smooth="yes"/>
      <point x="287" y="91"/>
      <point x="307" y="70"/>
    </contour>
    <contour>
      <point x="131" y="42" type="curve" smooth="yes"/>
      <point x="131" y="14"/>
      <point x="111" y="-7"/>
      <point x="83" y="-7" type="curve" smooth="yes"/>
      <point x="55" y="-7"/>
      <point x="34" y="14"/>
      <point x="34" y="42" type="curve" smooth="yes"/>
      <point x="34" y="70"/>
      <point x="55" y="91"/>
      <point x="83" y="91" type="curve" smooth="yes"/>
      <point x="111" y="91"/>
      <point x="131" y="70"/>
    </contour>
  </outline>
</glyph>
<glyph name="guilsinglright" format="1">
  <advance width="208"/>
  <unicode hex="203A"/>
  <outline>
    <contour>
      <point x="199" y="260" type="line"/>
      <point x="73" y="76" type="line"/>
      <point x="27" y="76" type="line"/>
      <point x="116" y="260" type="line"/>
      <point x="27" y="445" type="line"/>
      <point x="73" y="445" type="line"/>
    </contour>
  </outline>
</glyph>
<glyph name="Euro" format="1">
  <advance width="458"/>
  <unicode hex="20AC"/>
  <outline>
    <contour>
      <point x="433" y="181" type="line"/>
      <point x="407" y="67"/>
      <point x="357" y="-12"/>
      <point x="241" y="-12" type="curve" smooth="yes"/>
      <point x="114" y="-12"/>
      <point x="37" y="107"/>
      <point x="37" y="323" type="curve" smooth="yes"/>
      <point x="37" y="396" type="line" smooth="yes"/>
      <point x="37" y="612"/>
      <point x="115" y="732"/>
      <point x="241" y="732" type="curve" smooth="yes"/>
      <point x="351" y="732"/>
      <point x="403" y="660"/>
      <point x="429" y="551" type="curve"/>
      <point x="365" y="520" type="line"/>
      <point x="343" y="613"/>
      <point x="309" y="669"/>
      <point x="243" y="669" type="curve" smooth="yes"/>
      <point x="166" y="669"/>
      <point x="124" y="580"/>
      <point x="117" y="452" type="curve"/>
      <point x="299" y="452" type="line"/>
      <point x="299" y="403" type="line"/>
      <point x="116" y="403" type="line"/>
      <point x="116" y="307" type="line"/>
      <point x="299" y="307" type="line"/>
      <point x="299" y="258" type="line"/>
      <point x="118" y="258" type="line"/>
      <point x="126" y="136"/>
      <point x="168" y="51"/>
      <point x="247" y="51" type="curve" smooth="yes"/>
      <point x="312" y="51"/>
      <point x="346" y="107"/>
      <point x="370" y="210" type="curve"/>
    </contour>
  </outline>
</glyph>
<glyph name="uni2117" format="1">
  <advance width="657"/>
  <unicode hex="2117"/>
  <outline>
    <contour>
      <point x="624" y="360" type="curve" smooth="yes"/>
      <point x="624" y="147"/>
      <point x="501" y="-12"/>
      <point x="328" y="-12" type="curve" smooth="yes"/>
      <point x="157" y="-12"/>
      <point x="34" y="146"/>
      <point x="34" y="360" type="curve" smooth="yes"/>
      <point x="34" y="574"/>
      <point x="157" y="732"/>
      <point x="329" y="732" type="curve" smooth="yes"/>
      <point x="501" y="732"/>
      <point x="624" y="574"/>
    </contour>
    <contour>
      <point x="592" y="360" type="curve" smooth="yes"/>
      <point x="592" y="556"/>
      <point x="486" y="704"/>
      <point x="328" y="704" type="curve" smooth="yes"/>
      <point x="170" y="704"/>
      <point x="65" y="557"/>
      <point x="65" y="360" type="curve" smooth="yes"/>
      <point x="65" y="164"/>
      <point x="170" y="16"/>
      <point x="329" y="16" type="curve" smooth="yes"/>
      <point x="487" y="16"/>
      <point x="592" y="163"/>
    </contour>
    <contour>
      <point x="463" y="444" type="curve" smooth="yes"/>
      <point x="463" y="362"/>
      <point x="417" y="317"/>
      <point x="334" y="317" type="curve" smooth="yes"/>
      <point x="302" y="317" type="line"/>
      <point x="302" y="157" type="line"/>
      <point x="244" y="157" type="line"/>
      <point x="244" y="567" type="line"/>
      <point x="334" y="567" type="line" smooth="yes"/>
      <point x="416" y="567"/>
      <point x="463" y="524"/>
    </contour>
    <contour>
      <point x="405" y="442" type="curve" smooth="yes"/>
      <point x="405" y="492"/>
      <point x="381" y="520"/>
      <point x="335" y="520" type="curve" smooth="yes"/>
      <point x="302" y="520" type="line"/>
      <point x="302" y="364" type="line"/>
      <point x="336" y="364" type="line" smooth="yes"/>
      <point x="382" y="364"/>
      <point x="405" y="391"/>
    </contour>
  </outline>
</glyph>
<glyph name="minus" format="1">
  <advance width="473"/>
  <unicode hex="2212"/>
  <outline>
    <contour>
      <point x="439" y="320" type="line"/>
      <point x="33" y="320" type="line"/>
      <point x="33" y="388" type="line"/>
      <point x="439" y="388" type="line"/>
    </contour>
  </outline>
</glyph>
<glyph name="radical" format="1">
  <advance width="463"/>
  <unicode hex="221A"/>
  <outline>
    <contour>
      <point x="441" y="720" type="line"/>
      <point x="242" y="-3" type="line"/>
      <point x="149" y="-3" type="line"/>
      <point x="27" y="340" type="line"/>
      <point x="109" y="340" type="line"/>
      <point x="194" y="79" type="line"/>
      <point x="357" y="720" type="line"/>
    </contour>
  </outline>
</glyph>
<glyph name="fi" format="1">
  <advance width="453"/>
  <unicode hex="FB01"/>
  <outline>
    <contour>
      <point x="402" y="634" type="line"/>
      <point x="316" y="634" type="line"/>
      <point x="316" y="720" type="line"/>
      <point x="402" y="720" type="line"/>
    </contour>
    <contour>
      <point x="275" y="689" type="line"/>
      <point x="259" y="698"/>
      <point x="245" y="703"/>
      <point x="222" y="703" type="curve" smooth="yes"/>
      <point x="188" y="703"/>
      <point x="165" y="682"/>
      <point x="165" y="630" type="curve" smooth="yes"/>
      <point x="165" y="517" type="line"/>
      <point x="259" y="517" type="line"/>
      <point x="259" y="461" type="line"/>
      <point x="165" y="461" type="line"/>
      <point x="165" y="0" type="line"/>
      <point x="88" y="0" type="line"/>
      <point x="88" y="461" type="line"/>
      <point x="9" y="461" type="line"/>
      <point x="9" y="517" type="line"/>
      <point x="88" y="517" type="line"/>
      <point x="88" y="634" type="line" smooth="yes"/>
      <point x="88" y="718"/>
      <point x="132" y="759"/>
      <point x="203" y="759" type="curve" smooth="yes"/>
      <point x="238" y="759"/>
      <point x="256" y="756"/>
      <point x="275" y="749" type="curve"/>
    </contour>
    <contour>
      <point x="398" y="0" type="line"/>
      <point x="320" y="0" type="line"/>
      <point x="320" y="521" type="line"/>
      <point x="398" y="521" type="line"/>
    </contour>
  </outline>
</glyph>
<glyph name="macron" format="1">
  <advance width="393"/>
  <outline>
    <contour>
      <point x="309" y="615" type="line"/>
      <point x="84" y="615" type="line"/>
      <point x="84" y="667" type="line"/>
      <point x="309" y="667" type="line"/>
    </contour>
  </outline>
</glyph>
<glyph name="registered.big" format="1">
  <advance width="657"/>
  <outline>
    <contour>
      <point x="624" y="360" type="curve" smooth="yes"/>
      <point x="624" y="147"/>
      <point x="501" y="-12"/>
      <point x="328" y="-12" type="curve" smooth="yes"/>
      <point x="157" y="-12"/>
      <point x="34" y="146"/>
      <point x="34" y="360" type="curve" smooth="yes"/>
      <point x="34" y="574"/>
      <point x="157" y="732"/>
      <point x="329" y="732" type="curve" smooth="yes"/>
      <point x="501" y="732"/>
      <point x="624" y="574"/>
    </contour>
    <contour>
      <point x="592" y="360" type="curve" smooth="yes"/>
      <point x="592" y="556"/>
      <point x="486" y="704"/>
      <point x="328" y="704" type="curve" smooth="yes"/>
      <point x="170" y="704"/>
      <point x="65" y="557"/>
      <point x="65" y="360" type="curve" smooth="yes"/>
      <point x="65" y="164"/>
      <point x="170" y="16"/>
      <point x="329" y="16" type="curve" smooth="yes"/>
      <point x="487" y="16"/>
      <point x="592" y="163"/>
    </contour>
    <contour>
      <point x="463" y="160" type="line"/>
      <point x="401" y="160" type="line"/>
      <point x="321" y="332" type="line"/>
      <point x="285" y="332" type="line"/>
      <point x="285" y="160" type="line"/>
      <point x="228" y="160" type="line"/>
      <point x="228" y="571" type="line"/>
      <point x="327" y="571" type="line" smooth="yes"/>
      <point x="401" y="571"/>
      <point x="451" y="532"/>
      <point x="451" y="454" type="curve" smooth="yes"/>
      <point x="451" y="392"/>
      <point x="421" y="358"/>
      <point x="376" y="343" type="curve"/>
    </contour>
    <contour>
      <point x="393" y="451" type="curve" smooth="yes"/>
      <point x="393" y="500"/>
      <point x="369" y="525"/>
      <point x="323" y="525" type="curve" smooth="yes"/>
      <point x="285" y="525" type="line"/>
      <point x="285" y="376" type="line"/>
      <point x="324" y="376" type="line" smooth="yes"/>
      <point x="369" y="376"/>
      <point x="393" y="399"/>
    </contour>
  </outline>
</glyph>
<glyph name="registered" format="1">
  <advance width="354"/>
  <outline>
    <contour>
      <point x="329" y="562" type="curve" smooth="yes"/>
      <point x="329" y="469"/>
      <point x="264" y="398"/>
      <point x="177" y="398" type="curve" smooth="yes"/>
      <point x="90" y="398"/>
      <point x="25" y="469"/>
      <point x="25" y="561" type="curve" smooth="yes"/>
      <point x="25" y="655"/>
      <point x="90" y="726"/>
      <point x="177" y="726" type="curve" smooth="yes"/>
      <point x="264" y="726"/>
      <point x="329" y="655"/>
    </contour>
    <contour>
      <point x="310" y="561" type="curve" smooth="yes"/>
      <point x="310" y="644"/>
      <point x="254" y="708"/>
      <point x="177" y="708" type="curve" smooth="yes"/>
      <point x="99" y="708"/>
      <point x="44" y="644"/>
      <point x="44" y="562" type="curve" smooth="yes"/>
      <point x="44" y="480"/>
      <point x="100" y="416"/>
      <point x="177" y="416" type="curve" smooth="yes"/>
      <point x="255" y="416"/>
      <point x="310" y="480"/>
    </contour>
    <contour>
      <point x="253" y="472" type="line"/>
      <point x="211" y="472" type="line"/>
      <point x="170" y="547" type="line"/>
      <point x="157" y="547" type="line"/>
      <point x="157" y="472" type="line"/>
      <point x="122" y="472" type="line"/>
      <point x="122" y="659" type="line"/>
      <point x="178" y="659" type="line" smooth="yes"/>
      <point x="216" y="659"/>
      <point x="242" y="641"/>
      <point x="242" y="604" type="curve" smooth="yes"/>
      <point x="242" y="578"/>
      <point x="228" y="561"/>
      <point x="207" y="553" type="curve"/>
    </contour>
    <contour>
      <point x="207" y="603" type="curve" smooth="yes"/>
      <point x="207" y="621"/>
      <point x="196" y="630"/>
      <point x="176" y="630" type="curve" smooth="yes"/>
      <point x="157" y="630" type="line"/>
      <point x="157" y="573" type="line"/>
      <point x="177" y="573" type="line" smooth="yes"/>
      <point x="196" y="573"/>
      <point x="207" y="585"/>
    </contour>
  </outline>
</glyph>
